<svg xmlns="http://www.w3.org/2000/svg" xmlns:xlink="http://www.w3.org/1999/xlink" width="160" zoomAndPan="magnify" viewBox="0 0 120 30.000001" height="40" preserveAspectRatio="xMidYMid meet" version="1.2"><defs><clipPath id="4ef781174f"><path d="M 21.402344 19.265625 L 50.535156 19.265625 L 50.535156 25.542969 L 21.402344 25.542969 Z M 21.402344 19.265625 "/></clipPath><clipPath id="fe52734acb"><path d="M 49.996094 19.867188 C 49.3125 19.183594 48.207031 19.183594 47.523438 19.867188 C 46.148438 21.246094 44.316406 22.003906 42.371094 22.003906 C 40.421875 22.003906 38.589844 21.242188 37.214844 19.867188 C 36.53125 19.183594 35.425781 19.183594 34.742188 19.867188 C 31.898438 22.710938 27.273438 22.710938 24.433594 19.867188 C 23.75 19.183594 22.644531 19.183594 21.960938 19.867188 C 21.277344 20.550781 21.277344 21.65625 21.960938 22.339844 C 24.0625 24.441406 26.824219 25.496094 29.589844 25.496094 C 31.835938 25.496094 34.085938 24.796875 35.980469 23.402344 C 37.871094 24.796875 40.121094 25.496094 42.371094 25.496094 C 45.132812 25.496094 47.894531 24.441406 49.996094 22.339844 C 50.679688 21.65625 50.679688 20.550781 49.996094 19.867188 "/></clipPath><clipPath id="dbcd20e4a6"><path d="M 22.476562 3.488281 L 49.371094 3.488281 L 49.371094 19.894531 L 22.476562 19.894531 Z M 22.476562 3.488281 "/></clipPath><clipPath id="95403acf5a"><path d="M 29.546875 19.878906 C 30.519531 19.878906 31.457031 19.683594 32.34375 19.300781 C 33.226562 18.914062 33.632812 17.882812 33.246094 16.996094 C 33.238281 16.980469 33.226562 16.960938 33.21875 16.945312 C 33.167969 16.742188 33.082031 16.542969 32.953125 16.359375 C 31.007812 13.613281 30.800781 12.304688 30.800781 11.871094 C 30.800781 9.113281 33.015625 7.035156 35.953125 7.035156 C 38.894531 7.035156 41.109375 9.113281 41.109375 11.871094 C 41.109375 12.304688 40.898438 13.613281 38.957031 16.359375 C 38.910156 16.425781 38.867188 16.496094 38.832031 16.566406 C 38.785156 16.644531 38.742188 16.722656 38.707031 16.804688 C 38.328125 17.695312 38.746094 18.722656 39.636719 19.097656 C 40.5 19.460938 41.414062 19.644531 42.359375 19.644531 C 46.214844 19.644531 49.347656 16.511719 49.347656 12.65625 C 49.347656 11.691406 48.566406 10.90625 47.601562 10.90625 C 46.636719 10.90625 45.851562 11.6875 45.851562 12.65625 C 45.851562 14.253906 44.769531 15.605469 43.300781 16.019531 C 44.175781 14.417969 44.605469 13.046875 44.605469 11.867188 C 44.605469 7.199219 40.804688 3.539062 35.953125 3.539062 C 31.101562 3.539062 27.300781 7.199219 27.300781 11.871094 C 27.300781 13.117188 27.785156 14.574219 28.761719 16.292969 C 27.210938 15.9375 26.050781 14.546875 26.050781 12.890625 C 26.050781 11.921875 25.269531 11.140625 24.300781 11.140625 C 23.335938 11.140625 22.554688 11.921875 22.554688 12.890625 C 22.554688 16.746094 25.691406 19.878906 29.546875 19.878906 "/></clipPath><clipPath id="8338f29263"><path d="M 32 11.019531 L 34.398438 11.019531 L 34.398438 13.351562 L 32 13.351562 Z M 32 11.019531 "/></clipPath><clipPath id="86a69ba995"><path d="M 32.050781 12.207031 C 32.050781 12.835938 32.558594 13.339844 33.183594 13.339844 C 33.808594 13.339844 34.316406 12.835938 34.316406 12.207031 C 34.316406 11.582031 33.808594 11.074219 33.183594 11.074219 C 32.558594 11.074219 32.050781 11.582031 32.050781 12.207031 "/></clipPath><clipPath id="e34dd33341"><path d="M 34.757812 13.082031 L 37.179688 13.082031 L 37.179688 14.246094 L 34.757812 14.246094 Z M 34.757812 13.082031 "/></clipPath><clipPath id="b632853914"><path d="M 35.980469 14.234375 C 36.605469 14.234375 37.113281 13.730469 37.113281 13.101562 L 34.847656 13.101562 C 34.847656 13.730469 35.355469 14.234375 35.980469 14.234375 "/></clipPath><clipPath id="6b0941ce91"><path d="M 37.628906 11.019531 L 39.957031 11.019531 L 39.957031 13.351562 L 37.628906 13.351562 Z M 37.628906 11.019531 "/></clipPath><clipPath id="f8fbb38da3"><path d="M 39.910156 12.207031 C 39.910156 11.582031 39.402344 11.074219 38.777344 11.074219 C 38.152344 11.074219 37.644531 11.582031 37.644531 12.207031 C 37.644531 12.835938 38.152344 13.339844 38.777344 13.339844 C 39.402344 13.339844 39.910156 12.835938 39.910156 12.207031 "/></clipPath><clipPath id="470ba9f0c3"><path d="M 55.359375 6.019531 L 71.601562 6.019531 L 71.601562 21.832031 L 55.359375 21.832031 Z M 55.359375 6.019531 "/></clipPath><clipPath id="c18c1ca16d"><path d="M 69.539062 6.019531 C 68.410156 6.019531 67.785156 6.496094 67.316406 7.675781 L 63.523438 17.105469 L 63.4375 17.105469 L 59.632812 7.675781 C 59.164062 6.488281 58.546875 6.019531 57.433594 6.019531 C 56.125 6.019531 55.359375 6.792969 55.359375 8.089844 L 55.359375 20.269531 C 55.359375 21.21875 55.890625 21.769531 56.792969 21.769531 C 57.699219 21.769531 58.21875 21.214844 58.21875 20.269531 L 58.21875 11.214844 L 58.304688 11.214844 L 62.097656 20.503906 C 62.363281 21.164062 62.808594 21.472656 63.488281 21.472656 C 64.160156 21.472656 64.585938 21.171875 64.859375 20.492188 L 68.65625 11.214844 L 68.742188 11.214844 L 68.742188 20.269531 C 68.742188 21.214844 69.261719 21.769531 70.164062 21.769531 C 71.066406 21.769531 71.597656 21.214844 71.597656 20.269531 L 71.597656 8.089844 C 71.597656 6.785156 70.832031 6.019531 69.539062 6.019531 "/></clipPath><clipPath id="f4e3cc45ca"><path d="M 73.832031 5.550781 L 77.152344 5.550781 L 77.152344 8.761719 L 73.832031 8.761719 Z M 73.832031 5.550781 "/></clipPath><clipPath id="85d78f8ef0"><path d="M 75.488281 5.550781 C 74.554688 5.550781 73.832031 6.253906 73.832031 7.15625 C 73.832031 8.046875 74.554688 8.761719 75.488281 8.761719 C 76.425781 8.761719 77.148438 8.046875 77.148438 7.15625 C 77.148438 6.253906 76.425781 5.550781 75.488281 5.550781 "/></clipPath><clipPath id="7601f597f1"><path d="M 73.9375 9.941406 L 77.050781 9.941406 L 77.050781 21.796875 L 73.9375 21.796875 Z M 73.9375 9.941406 "/></clipPath><clipPath id="d893caae04"><path d="M 75.488281 9.941406 C 74.523438 9.941406 73.9375 10.558594 73.9375 11.566406 L 73.9375 20.175781 C 73.9375 21.183594 74.523438 21.789062 75.488281 21.789062 C 76.445312 21.789062 77.042969 21.183594 77.042969 20.175781 L 77.042969 11.566406 C 77.039062 10.558594 76.445312 9.941406 75.488281 9.941406 "/></clipPath><clipPath id="e2674ea415"><path d="M 79.175781 5.996094 L 82.292969 5.996094 L 82.292969 21.792969 L 79.175781 21.792969 Z M 79.175781 5.996094 "/></clipPath><clipPath id="417d469097"><path d="M 80.730469 5.996094 C 79.824219 5.996094 79.175781 6.5625 79.175781 7.625 L 79.175781 20.175781 C 79.175781 21.238281 79.824219 21.789062 80.730469 21.789062 C 81.640625 21.789062 82.28125 21.238281 82.28125 20.175781 L 82.28125 7.625 C 82.28125 6.5625 81.640625 5.996094 80.730469 5.996094 "/></clipPath><clipPath id="f54a91d1e5"><path d="M 83.667969 9.941406 L 95.585938 9.941406 L 95.585938 21.859375 L 83.667969 21.859375 Z M 83.667969 9.941406 "/></clipPath><clipPath id="3a4f329182"><path d="M 89.601562 19.132812 C 87.804688 19.132812 86.347656 17.675781 86.347656 15.875 C 86.347656 14.078125 87.804688 12.621094 89.601562 12.621094 C 91.402344 12.621094 92.859375 14.078125 92.859375 15.875 C 92.859375 17.675781 91.402344 19.132812 89.601562 19.132812 M 89.601562 9.941406 C 86.324219 9.941406 83.667969 12.597656 83.667969 15.875 C 83.667969 19.15625 86.324219 21.8125 89.601562 21.8125 C 92.878906 21.8125 95.539062 19.15625 95.539062 15.875 C 95.539062 12.597656 92.878906 9.941406 89.601562 9.941406 "/></clipPath></defs><g id="a663d3c842"><g clip-rule="nonzero" clip-path="url(#4ef781174f)"><g clip-rule="nonzero" clip-path="url(#fe52734acb)"><path style=" stroke:none;fill-rule:nonzero;fill:#ffffff;fill-opacity:1;" d="M 20.953125 3.042969 L 50.984375 3.042969 L 50.984375 25.992188 L 20.953125 25.992188 Z M 20.953125 3.042969 "/></g></g><g clip-rule="nonzero" clip-path="url(#dbcd20e4a6)"><g clip-rule="nonzero" clip-path="url(#95403acf5a)"><path style=" stroke:none;fill-rule:nonzero;fill:#ffffff;fill-opacity:1;" d="M 20.953125 3.042969 L 50.984375 3.042969 L 50.984375 25.992188 L 20.953125 25.992188 Z M 20.953125 3.042969 "/></g></g><g clip-rule="nonzero" clip-path="url(#8338f29263)"><g clip-rule="nonzero" clip-path="url(#86a69ba995)"><path style=" stroke:none;fill-rule:nonzero;fill:#ffffff;fill-opacity:1;" d="M 20.953125 3.042969 L 50.984375 3.042969 L 50.984375 25.992188 L 20.953125 25.992188 Z M 20.953125 3.042969 "/></g></g><g clip-rule="nonzero" clip-path="url(#e34dd33341)"><g clip-rule="nonzero" clip-path="url(#b632853914)"><path style=" stroke:none;fill-rule:nonzero;fill:#ffffff;fill-opacity:1;" d="M 20.953125 3.042969 L 50.984375 3.042969 L 50.984375 25.992188 L 20.953125 25.992188 Z M 20.953125 3.042969 "/></g></g><g clip-rule="nonzero" clip-path="url(#6b0941ce91)"><g clip-rule="nonzero" clip-path="url(#f8fbb38da3)"><path style=" stroke:none;fill-rule:nonzero;fill:#ffffff;fill-opacity:1;" d="M 20.953125 3.042969 L 50.984375 3.042969 L 50.984375 25.992188 L 20.953125 25.992188 Z M 20.953125 3.042969 "/></g></g><g clip-rule="nonzero" clip-path="url(#470ba9f0c3)"><g clip-rule="nonzero" clip-path="url(#c18c1ca16d)"><path style=" stroke:none;fill-rule:nonzero;fill:#ffffff;fill-opacity:1;" d="M 55.359375 6.019531 L 71.601562 6.019531 L 71.601562 21.769531 L 55.359375 21.769531 Z M 55.359375 6.019531 "/></g></g><g clip-rule="nonzero" clip-path="url(#f4e3cc45ca)"><g clip-rule="nonzero" clip-path="url(#85d78f8ef0)"><path style=" stroke:none;fill-rule:nonzero;fill:#ffffff;fill-opacity:1;" d="M 73.832031 5.550781 L 77.140625 5.550781 L 77.140625 8.761719 L 73.832031 8.761719 Z M 73.832031 5.550781 "/></g></g><g clip-rule="nonzero" clip-path="url(#7601f597f1)"><g clip-rule="nonzero" clip-path="url(#d893caae04)"><path style=" stroke:none;fill-rule:nonzero;fill:#ffffff;fill-opacity:1;" d="M 73.9375 9.941406 L 77.039062 9.941406 L 77.039062 21.796875 L 73.9375 21.796875 Z M 73.9375 9.941406 "/></g></g><g clip-rule="nonzero" clip-path="url(#e2674ea415)"><g clip-rule="nonzero" clip-path="url(#417d469097)"><path style=" stroke:none;fill-rule:nonzero;fill:#ffffff;fill-opacity:1;" d="M 79.175781 5.996094 L 82.28125 5.996094 L 82.28125 21.792969 L 79.175781 21.792969 Z M 79.175781 5.996094 "/></g></g><g clip-rule="nonzero" clip-path="url(#f54a91d1e5)"><g clip-rule="nonzero" clip-path="url(#3a4f329182)"><path style=" stroke:none;fill-rule:nonzero;fill:#ffffff;fill-opacity:1;" d="M 83.667969 9.941406 L 95.539062 9.941406 L 95.539062 21.8125 L 83.667969 21.8125 Z M 83.667969 9.941406 "/></g></g></g></svg>