<svg xmlns="http://www.w3.org/2000/svg" xmlns:xlink="http://www.w3.org/1999/xlink" width="83" zoomAndPan="magnify" viewBox="0 0 62.25 30.000001" height="40" preserveAspectRatio="xMidYMid meet" version="1.0"><defs><g/><clipPath id="e1d2befc0f"><path d="M 0.640625 2.699219 L 60.660156 2.699219 L 60.660156 27.203125 L 0.640625 27.203125 Z M 0.640625 2.699219 " clip-rule="nonzero"/></clipPath><clipPath id="b7b820c36c"><path d="M 60.625 14.953125 C 60.625 21.71875 55.136719 27.203125 48.371094 27.203125 L 12.894531 27.203125 C 6.125 27.203125 0.640625 21.71875 0.640625 14.953125 C 0.640625 8.183594 6.125 2.699219 12.894531 2.699219 L 48.371094 2.699219 C 55.136719 2.699219 60.625 8.183594 60.625 14.953125 Z M 60.625 14.953125 " clip-rule="nonzero"/></clipPath><clipPath id="71b15ff8c8"><path d="M 0.640625 0.699219 L 60.625 0.699219 L 60.625 25.203125 L 0.640625 25.203125 Z M 0.640625 0.699219 " clip-rule="nonzero"/></clipPath><clipPath id="0ee7cbfc09"><path d="M 60.625 12.953125 C 60.625 19.71875 55.136719 25.203125 48.371094 25.203125 L 12.894531 25.203125 C 6.125 25.203125 0.640625 19.71875 0.640625 12.953125 C 0.640625 6.183594 6.125 0.699219 12.894531 0.699219 L 48.371094 0.699219 C 55.136719 0.699219 60.625 6.183594 60.625 12.953125 Z M 60.625 12.953125 " clip-rule="nonzero"/></clipPath><linearGradient x1="0.00149536" gradientTransform="matrix(0.0957234, 0, 0, 0.0957234, 0.640985, 0.699017)" y1="128" x2="626.62799" gradientUnits="userSpaceOnUse" y2="128" id="7c5c717449"><stop stop-opacity="1" stop-color="rgb(99.998474%, 78.42865%, 41.569519%)" offset="0"/><stop stop-opacity="1" stop-color="rgb(99.986267%, 78.575134%, 41.575623%)" offset="0.03125"/><stop stop-opacity="1" stop-color="rgb(99.963379%, 78.869629%, 41.58783%)" offset="0.0625"/><stop stop-opacity="1" stop-color="rgb(99.938965%, 79.164124%, 41.600037%)" offset="0.09375"/><stop stop-opacity="1" stop-color="rgb(99.914551%, 79.458618%, 41.612244%)" offset="0.125"/><stop stop-opacity="1" stop-color="rgb(99.890137%, 79.751587%, 41.624451%)" offset="0.15625"/><stop stop-opacity="1" stop-color="rgb(99.865723%, 80.046082%, 41.636658%)" offset="0.1875"/><stop stop-opacity="1" stop-color="rgb(99.841309%, 80.340576%, 41.648865%)" offset="0.21875"/><stop stop-opacity="1" stop-color="rgb(99.816895%, 80.633545%, 41.661072%)" offset="0.25"/><stop stop-opacity="1" stop-color="rgb(99.79248%, 80.92804%, 41.673279%)" offset="0.28125"/><stop stop-opacity="1" stop-color="rgb(99.768066%, 81.222534%, 41.685486%)" offset="0.3125"/><stop stop-opacity="1" stop-color="rgb(99.743652%, 81.517029%, 41.697693%)" offset="0.34375"/><stop stop-opacity="1" stop-color="rgb(99.719238%, 81.809998%, 41.7099%)" offset="0.375"/><stop stop-opacity="1" stop-color="rgb(99.694824%, 82.104492%, 41.722107%)" offset="0.40625"/><stop stop-opacity="1" stop-color="rgb(99.67041%, 82.398987%, 41.734314%)" offset="0.4375"/><stop stop-opacity="1" stop-color="rgb(99.645996%, 82.691956%, 41.746521%)" offset="0.46875"/><stop stop-opacity="1" stop-color="rgb(99.621582%, 82.98645%, 41.758728%)" offset="0.5"/><stop stop-opacity="1" stop-color="rgb(99.597168%, 83.280945%, 41.770935%)" offset="0.53125"/><stop stop-opacity="1" stop-color="rgb(99.572754%, 83.575439%, 41.783142%)" offset="0.5625"/><stop stop-opacity="1" stop-color="rgb(99.54834%, 83.868408%, 41.795349%)" offset="0.59375"/><stop stop-opacity="1" stop-color="rgb(99.523926%, 84.162903%, 41.807556%)" offset="0.625"/><stop stop-opacity="1" stop-color="rgb(99.499512%, 84.457397%, 41.819763%)" offset="0.65625"/><stop stop-opacity="1" stop-color="rgb(99.475098%, 84.750366%, 41.83197%)" offset="0.6875"/><stop stop-opacity="1" stop-color="rgb(99.450684%, 85.044861%, 41.844177%)" offset="0.71875"/><stop stop-opacity="1" stop-color="rgb(99.42627%, 85.339355%, 41.856384%)" offset="0.75"/><stop stop-opacity="1" stop-color="rgb(99.401855%, 85.63385%, 41.867065%)" offset="0.78125"/><stop stop-opacity="1" stop-color="rgb(99.377441%, 85.926819%, 41.879272%)" offset="0.8125"/><stop stop-opacity="1" stop-color="rgb(99.353027%, 86.221313%, 41.891479%)" offset="0.84375"/><stop stop-opacity="1" stop-color="rgb(99.328613%, 86.515808%, 41.903687%)" offset="0.875"/><stop stop-opacity="1" stop-color="rgb(99.304199%, 86.808777%, 41.915894%)" offset="0.90625"/><stop stop-opacity="1" stop-color="rgb(99.279785%, 87.103271%, 41.928101%)" offset="0.9375"/><stop stop-opacity="1" stop-color="rgb(99.255371%, 87.397766%, 41.940308%)" offset="0.96875"/><stop stop-opacity="1" stop-color="rgb(99.230957%, 87.692261%, 41.952515%)" offset="1"/></linearGradient><clipPath id="5c3fd6d98e"><rect x="0" width="61" y="0" height="26"/></clipPath><clipPath id="3265f4f5eb"><path d="M 0.652344 2.699219 L 60.640625 2.699219 L 60.640625 27.320312 L 0.652344 27.320312 Z M 0.652344 2.699219 " clip-rule="nonzero"/></clipPath><clipPath id="3d6897ba29"><path d="M 60.613281 14.945312 C 60.613281 21.710938 55.128906 27.195312 48.363281 27.195312 L 12.898438 27.195312 C 6.136719 27.195312 0.652344 21.710938 0.652344 14.945312 C 0.652344 8.183594 6.136719 2.699219 12.898438 2.699219 L 48.363281 2.699219 C 55.128906 2.699219 60.613281 8.183594 60.613281 14.945312 Z M 60.613281 14.945312 " clip-rule="nonzero"/></clipPath><clipPath id="775ce1994b"><rect x="0" width="23" y="0" height="21"/></clipPath><clipPath id="e90390b2d4"><path d="M 5.566406 0.480469 L 12.835938 0.480469 L 12.835938 10.53125 L 5.566406 10.53125 Z M 5.566406 0.480469 " clip-rule="nonzero"/></clipPath><clipPath id="5ff7f8b533"><path d="M 9.328125 0.507812 L 5.566406 0.507812 L 5.566406 2.925781 L 9.152344 2.925781 C 10.09375 2.925781 10.453125 3.429688 10.453125 4.175781 C 10.453125 4.839844 10.015625 5.476562 9.039062 5.476562 L 5.566406 5.476562 L 5.566406 10.523438 L 8.082031 10.523438 L 8.082031 7.765625 L 9.28125 7.765625 C 11.195312 7.765625 12.835938 6.464844 12.835938 4.160156 C 12.835938 1.808594 11.40625 0.507812 9.328125 0.507812 " clip-rule="nonzero"/></clipPath><clipPath id="0fc5d4130a"><path d="M 0.566406 0.480469 L 7.835938 0.480469 L 7.835938 10.53125 L 0.566406 10.53125 Z M 0.566406 0.480469 " clip-rule="nonzero"/></clipPath><clipPath id="997abd4124"><path d="M 4.328125 0.507812 L 0.566406 0.507812 L 0.566406 2.925781 L 4.152344 2.925781 C 5.09375 2.925781 5.453125 3.429688 5.453125 4.175781 C 5.453125 4.839844 5.015625 5.476562 4.039062 5.476562 L 0.566406 5.476562 L 0.566406 10.523438 L 3.082031 10.523438 L 3.082031 7.765625 L 4.28125 7.765625 C 6.195312 7.765625 7.835938 6.464844 7.835938 4.160156 C 7.835938 1.808594 6.40625 0.507812 4.328125 0.507812 " clip-rule="nonzero"/></clipPath><clipPath id="ee6cb4cacc"><rect x="0" width="8" y="0" height="11"/></clipPath><clipPath id="b56fa64c19"><path d="M 0.980469 1.746094 L 6.039062 1.746094 L 6.039062 6.804688 L 0.980469 6.804688 Z M 0.980469 1.746094 " clip-rule="nonzero"/></clipPath><clipPath id="6bb639eac5"><path d="M 3.511719 1.746094 C 2.113281 1.746094 0.980469 2.878906 0.980469 4.277344 C 0.980469 5.671875 2.113281 6.804688 3.511719 6.804688 C 4.90625 6.804688 6.039062 5.671875 6.039062 4.277344 C 6.039062 2.878906 4.90625 1.746094 3.511719 1.746094 Z M 3.511719 1.746094 " clip-rule="nonzero"/></clipPath><clipPath id="1f08716883"><path d="M 0.980469 0.746094 L 6.039062 0.746094 L 6.039062 5.804688 L 0.980469 5.804688 Z M 0.980469 0.746094 " clip-rule="nonzero"/></clipPath><clipPath id="732bc94476"><path d="M 3.511719 0.746094 C 2.113281 0.746094 0.980469 1.878906 0.980469 3.277344 C 0.980469 4.671875 2.113281 5.804688 3.511719 5.804688 C 4.90625 5.804688 6.039062 4.671875 6.039062 3.277344 C 6.039062 1.878906 4.90625 0.746094 3.511719 0.746094 Z M 3.511719 0.746094 " clip-rule="nonzero"/></clipPath><clipPath id="bb859a7c68"><rect x="0" width="7" y="0" height="6"/></clipPath><clipPath id="7bf4455059"><rect x="0" width="13" y="0" height="11"/></clipPath></defs><g clip-path="url(#e1d2befc0f)"><g clip-path="url(#b7b820c36c)"><g transform="matrix(1, 0, 0, 1, 0, 2)"><g clip-path="url(#5c3fd6d98e)"><g clip-path="url(#71b15ff8c8)"><g clip-path="url(#0ee7cbfc09)"><path fill="url(#7c5c717449)" d="M 0.640625 0.699219 L 0.640625 25.203125 L 60.625 25.203125 L 60.625 0.699219 Z M 0.640625 0.699219 " fill-rule="nonzero"/></g></g></g></g></g></g><g clip-path="url(#3265f4f5eb)"><g clip-path="url(#3d6897ba29)"><path stroke-linecap="butt" transform="matrix(0.725806, 0, 0, 0.725806, 0.651489, 2.699017)" fill="none" stroke-linejoin="miter" d="M 82.614025 16.872674 C 82.614025 26.194202 75.057775 33.750452 65.736248 33.750452 L 16.873574 33.750452 C 7.557428 33.750452 0.00117758 26.194202 0.00117758 16.872674 C 0.00117758 7.556528 7.557428 0.000278383 16.873574 0.000278383 L 65.736248 0.000278383 C 75.057775 0.000278383 82.614025 7.556528 82.614025 16.872674 Z M 82.614025 16.872674 " stroke="#e9cc59" stroke-width="2" stroke-opacity="1" stroke-miterlimit="4"/></g></g><g transform="matrix(1, 0, 0, 1, 26, 4)"><g clip-path="url(#775ce1994b)"><g fill="#000000" fill-opacity="1"><g transform="translate(0.193217, 14.624073)"><g><path d="M 7.671875 -6.671875 C 7.671875 -6.191406 7.554688 -5.738281 7.328125 -5.3125 C 7.109375 -4.882812 6.742188 -4.535156 6.234375 -4.265625 C 5.734375 -3.992188 5.09375 -3.859375 4.3125 -3.859375 L 2.59375 -3.859375 L 2.59375 0 L 1.03125 0 L 1.03125 -9.515625 L 4.3125 -9.515625 C 5.039062 -9.515625 5.65625 -9.390625 6.15625 -9.140625 C 6.664062 -8.890625 7.046875 -8.546875 7.296875 -8.109375 C 7.546875 -7.679688 7.671875 -7.203125 7.671875 -6.671875 Z M 4.3125 -5.140625 C 4.90625 -5.140625 5.347656 -5.269531 5.640625 -5.53125 C 5.929688 -5.800781 6.078125 -6.179688 6.078125 -6.671875 C 6.078125 -7.710938 5.488281 -8.234375 4.3125 -8.234375 L 2.59375 -8.234375 L 2.59375 -5.140625 Z M 4.3125 -5.140625 "/></g></g></g><g fill="#000000" fill-opacity="1"><g transform="translate(8.338904, 14.624073)"><g><path d="M 2.59375 -6.453125 C 2.8125 -6.828125 3.109375 -7.125 3.484375 -7.34375 C 3.867188 -7.5625 4.320312 -7.671875 4.84375 -7.671875 L 4.84375 -6.046875 L 4.453125 -6.046875 C 3.835938 -6.046875 3.375 -5.890625 3.0625 -5.578125 C 2.75 -5.273438 2.59375 -4.738281 2.59375 -3.96875 L 2.59375 0 L 1.03125 0 L 1.03125 -7.546875 L 2.59375 -7.546875 Z M 2.59375 -6.453125 "/></g></g></g><g fill="#000000" fill-opacity="1"><g transform="translate(13.595954, 14.624073)"><g><path d="M 4.296875 0.125 C 3.585938 0.125 2.941406 -0.0351562 2.359375 -0.359375 C 1.785156 -0.679688 1.332031 -1.132812 1 -1.71875 C 0.675781 -2.3125 0.515625 -3 0.515625 -3.78125 C 0.515625 -4.539062 0.679688 -5.21875 1.015625 -5.8125 C 1.359375 -6.40625 1.820312 -6.863281 2.40625 -7.1875 C 2.988281 -7.507812 3.640625 -7.671875 4.359375 -7.671875 C 5.085938 -7.671875 5.742188 -7.507812 6.328125 -7.1875 C 6.910156 -6.863281 7.367188 -6.40625 7.703125 -5.8125 C 8.046875 -5.21875 8.21875 -4.539062 8.21875 -3.78125 C 8.21875 -3.007812 8.039062 -2.328125 7.6875 -1.734375 C 7.34375 -1.140625 6.867188 -0.679688 6.265625 -0.359375 C 5.671875 -0.0351562 5.015625 0.125 4.296875 0.125 Z M 4.296875 -1.234375 C 4.703125 -1.234375 5.078125 -1.328125 5.421875 -1.515625 C 5.773438 -1.710938 6.0625 -2 6.28125 -2.375 C 6.5 -2.757812 6.609375 -3.226562 6.609375 -3.78125 C 6.609375 -4.320312 6.503906 -4.78125 6.296875 -5.15625 C 6.085938 -5.539062 5.804688 -5.828125 5.453125 -6.015625 C 5.109375 -6.210938 4.738281 -6.3125 4.34375 -6.3125 C 3.9375 -6.3125 3.5625 -6.210938 3.21875 -6.015625 C 2.875 -5.828125 2.601562 -5.539062 2.40625 -5.15625 C 2.207031 -4.78125 2.109375 -4.320312 2.109375 -3.78125 C 2.109375 -2.96875 2.316406 -2.335938 2.734375 -1.890625 C 3.148438 -1.453125 3.671875 -1.234375 4.296875 -1.234375 Z M 4.296875 -1.234375 "/></g></g></g></g></g><g transform="matrix(1, 0, 0, 1, 8, 9)"><g clip-path="url(#7bf4455059)"><g clip-path="url(#e90390b2d4)"><g clip-path="url(#5ff7f8b533)"><g transform="matrix(1, 0, 0, 1, 5, 0.000000000000005329)"><g clip-path="url(#ee6cb4cacc)"><g clip-path="url(#0fc5d4130a)"><g clip-path="url(#997abd4124)"><path fill="#23211f" d="M 0.566406 0.507812 L 7.835938 0.507812 L 7.835938 10.53125 L 0.566406 10.53125 Z M 0.566406 0.507812 " fill-opacity="1" fill-rule="nonzero"/></g></g></g></g></g></g><g clip-path="url(#b56fa64c19)"><g clip-path="url(#6bb639eac5)"><g transform="matrix(1, 0, 0, 1, 0, 1)"><g clip-path="url(#bb859a7c68)"><g clip-path="url(#1f08716883)"><g clip-path="url(#732bc94476)"><path fill="#23211f" d="M 0.980469 0.746094 L 6.039062 0.746094 L 6.039062 5.804688 L 0.980469 5.804688 Z M 0.980469 0.746094 " fill-opacity="1" fill-rule="nonzero"/></g></g></g></g></g></g></g></g></svg>