<svg xmlns="http://www.w3.org/2000/svg" xmlns:xlink="http://www.w3.org/1999/xlink" width="83" zoomAndPan="magnify" viewBox="0 0 62.25 30.000001" height="40" preserveAspectRatio="xMidYMid meet" version="1.0"><defs><g/><clipPath id="15611d1e3e"><path d="M 0.640625 2.699219 L 60.660156 2.699219 L 60.660156 27.203125 L 0.640625 27.203125 Z M 0.640625 2.699219 " clip-rule="nonzero"/></clipPath><clipPath id="e74b993988"><path d="M 60.625 14.953125 C 60.625 21.71875 55.136719 27.203125 48.371094 27.203125 L 12.894531 27.203125 C 6.125 27.203125 0.640625 21.71875 0.640625 14.953125 C 0.640625 8.183594 6.125 2.699219 12.894531 2.699219 L 48.371094 2.699219 C 55.136719 2.699219 60.625 8.183594 60.625 14.953125 Z M 60.625 14.953125 " clip-rule="nonzero"/></clipPath><clipPath id="47dd9d17d4"><path d="M 0.640625 0.699219 L 60.625 0.699219 L 60.625 25.203125 L 0.640625 25.203125 Z M 0.640625 0.699219 " clip-rule="nonzero"/></clipPath><clipPath id="c5dbafc5f2"><path d="M 60.625 12.953125 C 60.625 19.71875 55.136719 25.203125 48.371094 25.203125 L 12.894531 25.203125 C 6.125 25.203125 0.640625 19.71875 0.640625 12.953125 C 0.640625 6.183594 6.125 0.699219 12.894531 0.699219 L 48.371094 0.699219 C 55.136719 0.699219 60.625 6.183594 60.625 12.953125 Z M 60.625 12.953125 " clip-rule="nonzero"/></clipPath><linearGradient x1="0.00149536" gradientTransform="matrix(0.0957234, 0, 0, 0.0957234, 0.640985, 0.69902)" y1="128" x2="626.62799" gradientUnits="userSpaceOnUse" y2="128" id="b5222f5d51"><stop stop-opacity="1" stop-color="rgb(80.780029%, 80.780029%, 80.780029%)" offset="0"/><stop stop-opacity="1" stop-color="rgb(80.929565%, 80.929565%, 80.929565%)" offset="0.015625"/><stop stop-opacity="1" stop-color="rgb(81.228638%, 81.228638%, 81.228638%)" offset="0.03125"/><stop stop-opacity="1" stop-color="rgb(81.529236%, 81.529236%, 81.529236%)" offset="0.046875"/><stop stop-opacity="1" stop-color="rgb(81.829834%, 81.829834%, 81.829834%)" offset="0.0625"/><stop stop-opacity="1" stop-color="rgb(82.130432%, 82.130432%, 82.130432%)" offset="0.078125"/><stop stop-opacity="1" stop-color="rgb(82.43103%, 82.43103%, 82.43103%)" offset="0.09375"/><stop stop-opacity="1" stop-color="rgb(82.730103%, 82.730103%, 82.730103%)" offset="0.109375"/><stop stop-opacity="1" stop-color="rgb(83.030701%, 83.030701%, 83.030701%)" offset="0.125"/><stop stop-opacity="1" stop-color="rgb(83.331299%, 83.331299%, 83.331299%)" offset="0.140625"/><stop stop-opacity="1" stop-color="rgb(83.631897%, 83.631897%, 83.631897%)" offset="0.15625"/><stop stop-opacity="1" stop-color="rgb(83.932495%, 83.932495%, 83.932495%)" offset="0.171875"/><stop stop-opacity="1" stop-color="rgb(84.231567%, 84.231567%, 84.231567%)" offset="0.1875"/><stop stop-opacity="1" stop-color="rgb(84.532166%, 84.532166%, 84.532166%)" offset="0.203125"/><stop stop-opacity="1" stop-color="rgb(84.832764%, 84.832764%, 84.832764%)" offset="0.21875"/><stop stop-opacity="1" stop-color="rgb(85.133362%, 85.133362%, 85.133362%)" offset="0.234375"/><stop stop-opacity="1" stop-color="rgb(85.43396%, 85.43396%, 85.43396%)" offset="0.25"/><stop stop-opacity="1" stop-color="rgb(85.734558%, 85.734558%, 85.734558%)" offset="0.265625"/><stop stop-opacity="1" stop-color="rgb(86.03363%, 86.03363%, 86.03363%)" offset="0.28125"/><stop stop-opacity="1" stop-color="rgb(86.334229%, 86.334229%, 86.334229%)" offset="0.296875"/><stop stop-opacity="1" stop-color="rgb(86.634827%, 86.634827%, 86.634827%)" offset="0.3125"/><stop stop-opacity="1" stop-color="rgb(86.935425%, 86.935425%, 86.935425%)" offset="0.328125"/><stop stop-opacity="1" stop-color="rgb(87.236023%, 87.236023%, 87.236023%)" offset="0.34375"/><stop stop-opacity="1" stop-color="rgb(87.535095%, 87.535095%, 87.535095%)" offset="0.359375"/><stop stop-opacity="1" stop-color="rgb(87.835693%, 87.835693%, 87.835693%)" offset="0.375"/><stop stop-opacity="1" stop-color="rgb(88.136292%, 88.136292%, 88.136292%)" offset="0.390625"/><stop stop-opacity="1" stop-color="rgb(88.43689%, 88.43689%, 88.43689%)" offset="0.40625"/><stop stop-opacity="1" stop-color="rgb(88.737488%, 88.737488%, 88.737488%)" offset="0.421875"/><stop stop-opacity="1" stop-color="rgb(89.03656%, 89.03656%, 89.03656%)" offset="0.4375"/><stop stop-opacity="1" stop-color="rgb(89.337158%, 89.337158%, 89.337158%)" offset="0.453125"/><stop stop-opacity="1" stop-color="rgb(89.637756%, 89.637756%, 89.637756%)" offset="0.46875"/><stop stop-opacity="1" stop-color="rgb(89.938354%, 89.938354%, 89.938354%)" offset="0.484375"/><stop stop-opacity="1" stop-color="rgb(90.238953%, 90.238953%, 90.238953%)" offset="0.5"/><stop stop-opacity="1" stop-color="rgb(90.539551%, 90.539551%, 90.539551%)" offset="0.515625"/><stop stop-opacity="1" stop-color="rgb(90.838623%, 90.838623%, 90.838623%)" offset="0.53125"/><stop stop-opacity="1" stop-color="rgb(91.139221%, 91.139221%, 91.139221%)" offset="0.546875"/><stop stop-opacity="1" stop-color="rgb(91.439819%, 91.439819%, 91.439819%)" offset="0.5625"/><stop stop-opacity="1" stop-color="rgb(91.740417%, 91.740417%, 91.740417%)" offset="0.578125"/><stop stop-opacity="1" stop-color="rgb(92.041016%, 92.041016%, 92.041016%)" offset="0.59375"/><stop stop-opacity="1" stop-color="rgb(92.340088%, 92.340088%, 92.340088%)" offset="0.609375"/><stop stop-opacity="1" stop-color="rgb(92.640686%, 92.640686%, 92.640686%)" offset="0.625"/><stop stop-opacity="1" stop-color="rgb(92.941284%, 92.941284%, 92.941284%)" offset="0.640625"/><stop stop-opacity="1" stop-color="rgb(93.241882%, 93.241882%, 93.241882%)" offset="0.65625"/><stop stop-opacity="1" stop-color="rgb(93.54248%, 93.54248%, 93.54248%)" offset="0.671875"/><stop stop-opacity="1" stop-color="rgb(93.841553%, 93.841553%, 93.841553%)" offset="0.6875"/><stop stop-opacity="1" stop-color="rgb(94.142151%, 94.142151%, 94.142151%)" offset="0.703125"/><stop stop-opacity="1" stop-color="rgb(94.442749%, 94.442749%, 94.442749%)" offset="0.71875"/><stop stop-opacity="1" stop-color="rgb(94.743347%, 94.743347%, 94.743347%)" offset="0.734375"/><stop stop-opacity="1" stop-color="rgb(95.043945%, 95.043945%, 95.043945%)" offset="0.75"/><stop stop-opacity="1" stop-color="rgb(95.344543%, 95.344543%, 95.344543%)" offset="0.765625"/><stop stop-opacity="1" stop-color="rgb(95.643616%, 95.643616%, 95.643616%)" offset="0.78125"/><stop stop-opacity="1" stop-color="rgb(95.944214%, 95.944214%, 95.944214%)" offset="0.796875"/><stop stop-opacity="1" stop-color="rgb(96.244812%, 96.244812%, 96.244812%)" offset="0.8125"/><stop stop-opacity="1" stop-color="rgb(96.54541%, 96.54541%, 96.54541%)" offset="0.828125"/><stop stop-opacity="1" stop-color="rgb(96.846008%, 96.846008%, 96.846008%)" offset="0.84375"/><stop stop-opacity="1" stop-color="rgb(97.145081%, 97.145081%, 97.145081%)" offset="0.859375"/><stop stop-opacity="1" stop-color="rgb(97.445679%, 97.445679%, 97.445679%)" offset="0.875"/><stop stop-opacity="1" stop-color="rgb(97.746277%, 97.746277%, 97.746277%)" offset="0.890625"/><stop stop-opacity="1" stop-color="rgb(98.046875%, 98.046875%, 98.046875%)" offset="0.90625"/><stop stop-opacity="1" stop-color="rgb(98.347473%, 98.347473%, 98.347473%)" offset="0.921875"/><stop stop-opacity="1" stop-color="rgb(98.646545%, 98.646545%, 98.646545%)" offset="0.9375"/><stop stop-opacity="1" stop-color="rgb(98.947144%, 98.947144%, 98.947144%)" offset="0.953125"/><stop stop-opacity="1" stop-color="rgb(99.247742%, 99.247742%, 99.247742%)" offset="0.96875"/><stop stop-opacity="1" stop-color="rgb(99.54834%, 99.54834%, 99.54834%)" offset="0.984375"/><stop stop-opacity="1" stop-color="rgb(99.848938%, 99.848938%, 99.848938%)" offset="1"/></linearGradient><clipPath id="45bb902d85"><rect x="0" width="61" y="0" height="26"/></clipPath><clipPath id="32b5cce7fc"><path d="M 0.652344 2.699219 L 60.640625 2.699219 L 60.640625 27.320312 L 0.652344 27.320312 Z M 0.652344 2.699219 " clip-rule="nonzero"/></clipPath><clipPath id="4e3a0251f7"><path d="M 60.613281 14.945312 C 60.613281 21.710938 55.128906 27.195312 48.363281 27.195312 L 12.898438 27.195312 C 6.136719 27.195312 0.652344 21.710938 0.652344 14.945312 C 0.652344 8.183594 6.136719 2.699219 12.898438 2.699219 L 48.363281 2.699219 C 55.128906 2.699219 60.613281 8.183594 60.613281 14.945312 Z M 60.613281 14.945312 " clip-rule="nonzero"/></clipPath></defs><g clip-path="url(#15611d1e3e)"><g clip-path="url(#e74b993988)"><g transform="matrix(1, 0, 0, 1, 0, 2)"><g clip-path="url(#45bb902d85)"><g clip-path="url(#47dd9d17d4)"><g clip-path="url(#c5dbafc5f2)"><path fill="url(#b5222f5d51)" d="M 0.640625 0.699219 L 0.640625 25.203125 L 60.625 25.203125 L 60.625 0.699219 Z M 0.640625 0.699219 " fill-rule="nonzero"/></g></g></g></g></g></g><g clip-path="url(#32b5cce7fc)"><g clip-path="url(#4e3a0251f7)"><path stroke-linecap="butt" transform="matrix(0.725806, 0, 0, 0.725806, 0.651489, 2.69902)" fill="none" stroke-linejoin="miter" d="M 82.614025 16.87267 C 82.614025 26.194198 75.057775 33.750448 65.736248 33.750448 L 16.873574 33.750448 C 7.557428 33.750448 0.00117758 26.194198 0.00117758 16.87267 C 0.00117758 7.556524 7.557428 0.000274127 16.873574 0.000274127 L 65.736248 0.000274127 C 75.057775 0.000274127 82.614025 7.556524 82.614025 16.87267 Z M 82.614025 16.87267 " stroke="#d9d9d9" stroke-width="2" stroke-opacity="1" stroke-miterlimit="4"/></g></g><g fill="#000000" fill-opacity="1"><g transform="translate(13.743446, 18.145163)"><g><path d="M 5.625 -4.484375 C 6.09375 -4.398438 6.488281 -4.148438 6.8125 -3.734375 C 7.144531 -3.328125 7.3125 -2.867188 7.3125 -2.359375 C 7.3125 -1.910156 7.191406 -1.503906 6.953125 -1.140625 C 6.722656 -0.785156 6.390625 -0.503906 5.953125 -0.296875 C 5.523438 -0.0976562 5.019531 0 4.4375 0 L 0.9375 0 L 0.9375 -8.734375 L 4.28125 -8.734375 C 4.875 -8.734375 5.382812 -8.632812 5.8125 -8.4375 C 6.238281 -8.238281 6.5625 -7.96875 6.78125 -7.625 C 7 -7.289062 7.109375 -6.910156 7.109375 -6.484375 C 7.109375 -5.984375 6.972656 -5.566406 6.703125 -5.234375 C 6.429688 -4.898438 6.070312 -4.648438 5.625 -4.484375 Z M 2.375 -5.0625 L 4.15625 -5.0625 C 4.625 -5.0625 4.988281 -5.164062 5.25 -5.375 C 5.507812 -5.59375 5.640625 -5.90625 5.640625 -6.3125 C 5.640625 -6.707031 5.507812 -7.015625 5.25 -7.234375 C 4.988281 -7.460938 4.625 -7.578125 4.15625 -7.578125 L 2.375 -7.578125 Z M 4.3125 -1.171875 C 4.800781 -1.171875 5.179688 -1.285156 5.453125 -1.515625 C 5.734375 -1.753906 5.875 -2.082031 5.875 -2.5 C 5.875 -2.925781 5.726562 -3.265625 5.4375 -3.515625 C 5.144531 -3.773438 4.753906 -3.90625 4.265625 -3.90625 L 2.375 -3.90625 L 2.375 -1.171875 Z M 4.3125 -1.171875 "/></g></g></g><g fill="#000000" fill-opacity="1"><g transform="translate(21.666826, 18.145163)"><g><path d="M 0.46875 -3.5 C 0.46875 -4.195312 0.609375 -4.8125 0.890625 -5.34375 C 1.179688 -5.882812 1.578125 -6.300781 2.078125 -6.59375 C 2.578125 -6.894531 3.128906 -7.046875 3.734375 -7.046875 C 4.273438 -7.046875 4.75 -6.9375 5.15625 -6.71875 C 5.5625 -6.507812 5.890625 -6.242188 6.140625 -5.921875 L 6.140625 -6.9375 L 7.578125 -6.9375 L 7.578125 0 L 6.140625 0 L 6.140625 -1.03125 C 5.890625 -0.707031 5.554688 -0.4375 5.140625 -0.21875 C 4.722656 0 4.242188 0.109375 3.703125 0.109375 C 3.109375 0.109375 2.5625 -0.0390625 2.0625 -0.34375 C 1.570312 -0.65625 1.179688 -1.082031 0.890625 -1.625 C 0.609375 -2.175781 0.46875 -2.800781 0.46875 -3.5 Z M 6.140625 -3.46875 C 6.140625 -3.945312 6.039062 -4.363281 5.84375 -4.71875 C 5.644531 -5.070312 5.382812 -5.335938 5.0625 -5.515625 C 4.75 -5.703125 4.40625 -5.796875 4.03125 -5.796875 C 3.664062 -5.796875 3.320312 -5.703125 3 -5.515625 C 2.6875 -5.335938 2.429688 -5.078125 2.234375 -4.734375 C 2.035156 -4.390625 1.9375 -3.976562 1.9375 -3.5 C 1.9375 -3.019531 2.035156 -2.597656 2.234375 -2.234375 C 2.429688 -1.878906 2.691406 -1.601562 3.015625 -1.40625 C 3.335938 -1.21875 3.675781 -1.125 4.03125 -1.125 C 4.40625 -1.125 4.75 -1.21875 5.0625 -1.40625 C 5.382812 -1.59375 5.644531 -1.863281 5.84375 -2.21875 C 6.039062 -2.570312 6.140625 -2.988281 6.140625 -3.46875 Z M 6.140625 -3.46875 "/></g></g></g><g fill="#000000" fill-opacity="1"><g transform="translate(30.193888, 18.145163)"><g><path d="M 3.453125 0.109375 C 2.910156 0.109375 2.421875 0.0078125 1.984375 -0.1875 C 1.554688 -0.382812 1.21875 -0.648438 0.96875 -0.984375 C 0.71875 -1.328125 0.582031 -1.707031 0.5625 -2.125 L 2.046875 -2.125 C 2.078125 -1.832031 2.21875 -1.585938 2.46875 -1.390625 C 2.726562 -1.191406 3.050781 -1.09375 3.4375 -1.09375 C 3.832031 -1.09375 4.140625 -1.171875 4.359375 -1.328125 C 4.585938 -1.484375 4.703125 -1.679688 4.703125 -1.921875 C 4.703125 -2.179688 4.578125 -2.375 4.328125 -2.5 C 4.085938 -2.625 3.695312 -2.765625 3.15625 -2.921875 C 2.632812 -3.054688 2.207031 -3.191406 1.875 -3.328125 C 1.550781 -3.460938 1.269531 -3.664062 1.03125 -3.9375 C 0.789062 -4.21875 0.671875 -4.585938 0.671875 -5.046875 C 0.671875 -5.410156 0.78125 -5.742188 1 -6.046875 C 1.21875 -6.359375 1.53125 -6.601562 1.9375 -6.78125 C 2.34375 -6.957031 2.8125 -7.046875 3.34375 -7.046875 C 4.132812 -7.046875 4.769531 -6.84375 5.25 -6.4375 C 5.726562 -6.039062 5.988281 -5.5 6.03125 -4.8125 L 4.59375 -4.8125 C 4.5625 -5.125 4.429688 -5.375 4.203125 -5.5625 C 3.984375 -5.75 3.679688 -5.84375 3.296875 -5.84375 C 2.921875 -5.84375 2.628906 -5.769531 2.421875 -5.625 C 2.222656 -5.476562 2.125 -5.289062 2.125 -5.0625 C 2.125 -4.875 2.191406 -4.71875 2.328125 -4.59375 C 2.460938 -4.46875 2.625 -4.367188 2.8125 -4.296875 C 3.007812 -4.222656 3.296875 -4.132812 3.671875 -4.03125 C 4.171875 -3.894531 4.582031 -3.753906 4.90625 -3.609375 C 5.226562 -3.472656 5.503906 -3.269531 5.734375 -3 C 5.972656 -2.738281 6.097656 -2.382812 6.109375 -1.9375 C 6.109375 -1.539062 6 -1.1875 5.78125 -0.875 C 5.5625 -0.570312 5.253906 -0.332031 4.859375 -0.15625 C 4.460938 0.0195312 3.992188 0.109375 3.453125 0.109375 Z M 3.453125 0.109375 "/></g></g></g><g fill="#000000" fill-opacity="1"><g transform="translate(36.909891, 18.145163)"><g><path d="M 1.671875 -7.84375 C 1.410156 -7.84375 1.191406 -7.929688 1.015625 -8.109375 C 0.835938 -8.285156 0.75 -8.503906 0.75 -8.765625 C 0.75 -9.023438 0.835938 -9.242188 1.015625 -9.421875 C 1.191406 -9.597656 1.410156 -9.6875 1.671875 -9.6875 C 1.921875 -9.6875 2.132812 -9.597656 2.3125 -9.421875 C 2.488281 -9.242188 2.578125 -9.023438 2.578125 -8.765625 C 2.578125 -8.503906 2.488281 -8.285156 2.3125 -8.109375 C 2.132812 -7.929688 1.921875 -7.84375 1.671875 -7.84375 Z M 2.375 -6.9375 L 2.375 0 L 0.9375 0 L 0.9375 -6.9375 Z M 2.375 -6.9375 "/></g></g></g><g fill="#000000" fill-opacity="1"><g transform="translate(40.230165, 18.145163)"><g><path d="M 0.46875 -3.46875 C 0.46875 -4.1875 0.609375 -4.8125 0.890625 -5.34375 C 1.179688 -5.882812 1.582031 -6.300781 2.09375 -6.59375 C 2.613281 -6.894531 3.203125 -7.046875 3.859375 -7.046875 C 4.703125 -7.046875 5.394531 -6.84375 5.9375 -6.4375 C 6.488281 -6.039062 6.863281 -5.472656 7.0625 -4.734375 L 5.515625 -4.734375 C 5.390625 -5.078125 5.1875 -5.347656 4.90625 -5.546875 C 4.625 -5.742188 4.273438 -5.84375 3.859375 -5.84375 C 3.273438 -5.84375 2.804688 -5.632812 2.453125 -5.21875 C 2.109375 -4.800781 1.9375 -4.21875 1.9375 -3.46875 C 1.9375 -2.726562 2.109375 -2.144531 2.453125 -1.71875 C 2.804688 -1.300781 3.273438 -1.09375 3.859375 -1.09375 C 4.691406 -1.09375 5.242188 -1.457031 5.515625 -2.1875 L 7.0625 -2.1875 C 6.851562 -1.476562 6.472656 -0.914062 5.921875 -0.5 C 5.367188 -0.09375 4.679688 0.109375 3.859375 0.109375 C 3.203125 0.109375 2.613281 -0.0351562 2.09375 -0.328125 C 1.582031 -0.628906 1.179688 -1.050781 0.890625 -1.59375 C 0.609375 -2.132812 0.46875 -2.757812 0.46875 -3.46875 Z M 0.46875 -3.46875 "/></g></g></g></svg>