<svg xmlns="http://www.w3.org/2000/svg" xmlns:xlink="http://www.w3.org/1999/xlink" width="83" zoomAndPan="magnify" viewBox="0 0 62.25 30.000001" height="40" preserveAspectRatio="xMidYMid meet" version="1.0"><defs><g/><clipPath id="ea3efd3fb1"><path d="M 0.640625 2.699219 L 60.660156 2.699219 L 60.660156 27.203125 L 0.640625 27.203125 Z M 0.640625 2.699219 " clip-rule="nonzero"/></clipPath><clipPath id="b1a8f28b0e"><path d="M 60.625 14.953125 C 60.625 21.71875 55.136719 27.203125 48.371094 27.203125 L 12.894531 27.203125 C 6.125 27.203125 0.640625 21.71875 0.640625 14.953125 C 0.640625 8.183594 6.125 2.699219 12.894531 2.699219 L 48.371094 2.699219 C 55.136719 2.699219 60.625 8.183594 60.625 14.953125 Z M 60.625 14.953125 " clip-rule="nonzero"/></clipPath><clipPath id="b83bcbbae3"><path d="M 0.640625 0.699219 L 60.625 0.699219 L 60.625 25.203125 L 0.640625 25.203125 Z M 0.640625 0.699219 " clip-rule="nonzero"/></clipPath><clipPath id="b15e6952d7"><path d="M 60.625 12.953125 C 60.625 19.71875 55.136719 25.203125 48.371094 25.203125 L 12.894531 25.203125 C 6.125 25.203125 0.640625 19.71875 0.640625 12.953125 C 0.640625 6.183594 6.125 0.699219 12.894531 0.699219 L 48.371094 0.699219 C 55.136719 0.699219 60.625 6.183594 60.625 12.953125 Z M 60.625 12.953125 " clip-rule="nonzero"/></clipPath><radialGradient gradientTransform="matrix(1, 0, 0, 1, 0.640985, 0.69902)" gradientUnits="userSpaceOnUse" r="64.795558" cx="0" id="f7e86b6232" cy="0" fx="0" fy="0"><stop stop-opacity="1" stop-color="rgb(40.534973%, 93.777466%, 76.158142%)" offset="0"/><stop stop-opacity="1" stop-color="rgb(40.792847%, 93.864441%, 76.298523%)" offset="0.015625"/><stop stop-opacity="1" stop-color="rgb(41.014099%, 93.937683%, 76.417542%)" offset="0.0273438"/><stop stop-opacity="1" stop-color="rgb(41.235352%, 94.010925%, 76.53656%)" offset="0.0390625"/><stop stop-opacity="1" stop-color="rgb(41.455078%, 94.084167%, 76.655579%)" offset="0.0507812"/><stop stop-opacity="1" stop-color="rgb(41.676331%, 94.15741%, 76.776123%)" offset="0.0625"/><stop stop-opacity="1" stop-color="rgb(41.896057%, 94.230652%, 76.895142%)" offset="0.0742188"/><stop stop-opacity="1" stop-color="rgb(42.11731%, 94.30542%, 77.01416%)" offset="0.0859375"/><stop stop-opacity="1" stop-color="rgb(42.338562%, 94.378662%, 77.133179%)" offset="0.0976562"/><stop stop-opacity="1" stop-color="rgb(42.558289%, 94.451904%, 77.253723%)" offset="0.109375"/><stop stop-opacity="1" stop-color="rgb(42.779541%, 94.525146%, 77.372742%)" offset="0.121094"/><stop stop-opacity="1" stop-color="rgb(42.999268%, 94.598389%, 77.49176%)" offset="0.132812"/><stop stop-opacity="1" stop-color="rgb(43.22052%, 94.671631%, 77.610779%)" offset="0.144531"/><stop stop-opacity="1" stop-color="rgb(43.441772%, 94.744873%, 77.731323%)" offset="0.15625"/><stop stop-opacity="1" stop-color="rgb(43.661499%, 94.819641%, 77.850342%)" offset="0.167969"/><stop stop-opacity="1" stop-color="rgb(43.882751%, 94.892883%, 77.96936%)" offset="0.179688"/><stop stop-opacity="1" stop-color="rgb(44.104004%, 94.966125%, 78.089905%)" offset="0.191406"/><stop stop-opacity="1" stop-color="rgb(44.32373%, 95.039368%, 78.208923%)" offset="0.203125"/><stop stop-opacity="1" stop-color="rgb(44.544983%, 95.11261%, 78.327942%)" offset="0.214844"/><stop stop-opacity="1" stop-color="rgb(44.764709%, 95.185852%, 78.44696%)" offset="0.226562"/><stop stop-opacity="1" stop-color="rgb(44.985962%, 95.26062%, 78.567505%)" offset="0.238281"/><stop stop-opacity="1" stop-color="rgb(45.207214%, 95.333862%, 78.686523%)" offset="0.25"/><stop stop-opacity="1" stop-color="rgb(45.500183%, 95.431519%, 78.845215%)" offset="0.261719"/><stop stop-opacity="1" stop-color="rgb(45.86792%, 95.553589%, 79.045105%)" offset="0.28125"/><stop stop-opacity="1" stop-color="rgb(46.235657%, 95.675659%, 79.243469%)" offset="0.300781"/><stop stop-opacity="1" stop-color="rgb(46.603394%, 95.799255%, 79.441833%)" offset="0.320312"/><stop stop-opacity="1" stop-color="rgb(46.97113%, 95.921326%, 79.641724%)" offset="0.339844"/><stop stop-opacity="1" stop-color="rgb(47.338867%, 96.043396%, 79.840088%)" offset="0.359375"/><stop stop-opacity="1" stop-color="rgb(47.669983%, 96.153259%, 80.020142%)" offset="0.378906"/><stop stop-opacity="1" stop-color="rgb(47.964478%, 96.252441%, 80.178833%)" offset="0.394531"/><stop stop-opacity="1" stop-color="rgb(48.258972%, 96.350098%, 80.337524%)" offset="0.410156"/><stop stop-opacity="1" stop-color="rgb(48.553467%, 96.447754%, 80.497742%)" offset="0.425781"/><stop stop-opacity="1" stop-color="rgb(48.847961%, 96.54541%, 80.656433%)" offset="0.441406"/><stop stop-opacity="1" stop-color="rgb(49.14093%, 96.643066%, 80.815125%)" offset="0.457031"/><stop stop-opacity="1" stop-color="rgb(49.435425%, 96.742249%, 80.975342%)" offset="0.472656"/><stop stop-opacity="1" stop-color="rgb(49.729919%, 96.839905%, 81.134033%)" offset="0.488281"/><stop stop-opacity="1" stop-color="rgb(49.987793%, 96.925354%, 81.272888%)" offset="0.503906"/><stop stop-opacity="1" stop-color="rgb(50.209045%, 96.998596%, 81.393433%)" offset="0.515625"/><stop stop-opacity="1" stop-color="rgb(50.428772%, 97.071838%, 81.512451%)" offset="0.527344"/><stop stop-opacity="1" stop-color="rgb(50.650024%, 97.145081%, 81.63147%)" offset="0.539062"/><stop stop-opacity="1" stop-color="rgb(50.869751%, 97.219849%, 81.750488%)" offset="0.550781"/><stop stop-opacity="1" stop-color="rgb(51.091003%, 97.293091%, 81.871033%)" offset="0.5625"/><stop stop-opacity="1" stop-color="rgb(51.312256%, 97.366333%, 81.990051%)" offset="0.574219"/><stop stop-opacity="1" stop-color="rgb(51.531982%, 97.439575%, 82.10907%)" offset="0.585938"/><stop stop-opacity="1" stop-color="rgb(51.753235%, 97.512817%, 82.229614%)" offset="0.597656"/><stop stop-opacity="1" stop-color="rgb(51.972961%, 97.58606%, 82.348633%)" offset="0.609375"/><stop stop-opacity="1" stop-color="rgb(52.194214%, 97.660828%, 82.467651%)" offset="0.621094"/><stop stop-opacity="1" stop-color="rgb(52.488708%, 97.758484%, 82.626343%)" offset="0.632812"/><stop stop-opacity="1" stop-color="rgb(52.856445%, 97.880554%, 82.826233%)" offset="0.652344"/><stop stop-opacity="1" stop-color="rgb(53.224182%, 98.002625%, 83.024597%)" offset="0.671875"/><stop stop-opacity="1" stop-color="rgb(53.555298%, 98.112488%, 83.204651%)" offset="0.691406"/><stop stop-opacity="1" stop-color="rgb(53.849792%, 98.21167%, 83.363342%)" offset="0.707031"/><stop stop-opacity="1" stop-color="rgb(54.142761%, 98.309326%, 83.522034%)" offset="0.722656"/><stop stop-opacity="1" stop-color="rgb(54.437256%, 98.406982%, 83.682251%)" offset="0.738281"/><stop stop-opacity="1" stop-color="rgb(54.695129%, 98.492432%, 83.821106%)" offset="0.753906"/><stop stop-opacity="1" stop-color="rgb(54.916382%, 98.565674%, 83.940125%)" offset="0.765625"/><stop stop-opacity="1" stop-color="rgb(55.136108%, 98.640442%, 84.059143%)" offset="0.777344"/><stop stop-opacity="1" stop-color="rgb(55.357361%, 98.713684%, 84.179688%)" offset="0.789062"/><stop stop-opacity="1" stop-color="rgb(55.577087%, 98.786926%, 84.298706%)" offset="0.800781"/><stop stop-opacity="1" stop-color="rgb(55.79834%, 98.860168%, 84.417725%)" offset="0.8125"/><stop stop-opacity="1" stop-color="rgb(56.092834%, 98.957825%, 84.577942%)" offset="0.824219"/><stop stop-opacity="1" stop-color="rgb(56.460571%, 99.079895%, 84.776306%)" offset="0.84375"/><stop stop-opacity="1" stop-color="rgb(56.791687%, 99.191284%, 84.954834%)" offset="0.863281"/><stop stop-opacity="1" stop-color="rgb(57.049561%, 99.276733%, 85.095215%)" offset="0.878906"/><stop stop-opacity="1" stop-color="rgb(57.269287%, 99.349976%, 85.214233%)" offset="0.890625"/><stop stop-opacity="1" stop-color="rgb(57.49054%, 99.423218%, 85.333252%)" offset="0.902344"/><stop stop-opacity="1" stop-color="rgb(57.783508%, 99.520874%, 85.493469%)" offset="0.914062"/><stop stop-opacity="1" stop-color="rgb(58.114624%, 99.632263%, 85.671997%)" offset="0.933594"/><stop stop-opacity="1" stop-color="rgb(58.372498%, 99.717712%, 85.810852%)" offset="0.949219"/><stop stop-opacity="1" stop-color="rgb(58.666992%, 99.815369%, 85.971069%)" offset="0.960938"/><stop stop-opacity="1" stop-color="rgb(59.034729%, 99.937439%, 86.169434%)" offset="0.980469"/><stop stop-opacity="1" stop-color="rgb(59.21936%, 100%, 86.268616%)" offset="1"/></radialGradient><clipPath id="89417e02c5"><rect x="0" width="61" y="0" height="26"/></clipPath><clipPath id="3ec89c090c"><path d="M 0.652344 2.699219 L 60.640625 2.699219 L 60.640625 27.320312 L 0.652344 27.320312 Z M 0.652344 2.699219 " clip-rule="nonzero"/></clipPath><clipPath id="e965348061"><path d="M 60.613281 14.945312 C 60.613281 21.710938 55.128906 27.195312 48.363281 27.195312 L 12.898438 27.195312 C 6.136719 27.195312 0.652344 21.710938 0.652344 14.945312 C 0.652344 8.183594 6.136719 2.699219 12.898438 2.699219 L 48.363281 2.699219 C 55.128906 2.699219 60.613281 8.183594 60.613281 14.945312 Z M 60.613281 14.945312 " clip-rule="nonzero"/></clipPath><clipPath id="f7a21eb125"><rect x="0" width="28" y="0" height="20"/></clipPath><clipPath id="4e94a8f62d"><path d="M 5.566406 0.480469 L 12.835938 0.480469 L 12.835938 10.53125 L 5.566406 10.53125 Z M 5.566406 0.480469 " clip-rule="nonzero"/></clipPath><clipPath id="bc4ef7df5e"><path d="M 9.328125 0.507812 L 5.566406 0.507812 L 5.566406 2.925781 L 9.152344 2.925781 C 10.09375 2.925781 10.453125 3.429688 10.453125 4.175781 C 10.453125 4.839844 10.015625 5.476562 9.039062 5.476562 L 5.566406 5.476562 L 5.566406 10.523438 L 8.082031 10.523438 L 8.082031 7.765625 L 9.28125 7.765625 C 11.195312 7.765625 12.835938 6.464844 12.835938 4.160156 C 12.835938 1.808594 11.40625 0.507812 9.328125 0.507812 " clip-rule="nonzero"/></clipPath><clipPath id="0a1834264d"><path d="M 0.566406 0.480469 L 7.835938 0.480469 L 7.835938 10.53125 L 0.566406 10.53125 Z M 0.566406 0.480469 " clip-rule="nonzero"/></clipPath><clipPath id="8896cabd2e"><path d="M 4.328125 0.507812 L 0.566406 0.507812 L 0.566406 2.925781 L 4.152344 2.925781 C 5.09375 2.925781 5.453125 3.429688 5.453125 4.175781 C 5.453125 4.839844 5.015625 5.476562 4.039062 5.476562 L 0.566406 5.476562 L 0.566406 10.523438 L 3.082031 10.523438 L 3.082031 7.765625 L 4.28125 7.765625 C 6.195312 7.765625 7.835938 6.464844 7.835938 4.160156 C 7.835938 1.808594 6.40625 0.507812 4.328125 0.507812 " clip-rule="nonzero"/></clipPath><clipPath id="c90ea528d1"><rect x="0" width="8" y="0" height="11"/></clipPath><clipPath id="3533e21de1"><path d="M 0.980469 1.746094 L 6.039062 1.746094 L 6.039062 6.804688 L 0.980469 6.804688 Z M 0.980469 1.746094 " clip-rule="nonzero"/></clipPath><clipPath id="aee9e34c5b"><path d="M 3.511719 1.746094 C 2.113281 1.746094 0.980469 2.878906 0.980469 4.277344 C 0.980469 5.671875 2.113281 6.804688 3.511719 6.804688 C 4.90625 6.804688 6.039062 5.671875 6.039062 4.277344 C 6.039062 2.878906 4.90625 1.746094 3.511719 1.746094 Z M 3.511719 1.746094 " clip-rule="nonzero"/></clipPath><clipPath id="1b1923ac65"><path d="M 0.980469 0.746094 L 6.039062 0.746094 L 6.039062 5.804688 L 0.980469 5.804688 Z M 0.980469 0.746094 " clip-rule="nonzero"/></clipPath><clipPath id="f1fb24b907"><path d="M 3.511719 0.746094 C 2.113281 0.746094 0.980469 1.878906 0.980469 3.277344 C 0.980469 4.671875 2.113281 5.804688 3.511719 5.804688 C 4.90625 5.804688 6.039062 4.671875 6.039062 3.277344 C 6.039062 1.878906 4.90625 0.746094 3.511719 0.746094 Z M 3.511719 0.746094 " clip-rule="nonzero"/></clipPath><clipPath id="21dbdaa7c9"><rect x="0" width="7" y="0" height="6"/></clipPath><clipPath id="52f81ac843"><rect x="0" width="13" y="0" height="11"/></clipPath></defs><g clip-path="url(#ea3efd3fb1)"><g clip-path="url(#b1a8f28b0e)"><g transform="matrix(1, 0, 0, 1, 0, 2)"><g clip-path="url(#89417e02c5)"><g clip-path="url(#b83bcbbae3)"><g clip-path="url(#b15e6952d7)"><path fill="url(#f7e86b6232)" d="M 0.640625 0.699219 L 0.640625 25.203125 L 60.625 25.203125 L 60.625 0.699219 Z M 0.640625 0.699219 " fill-rule="nonzero"/></g></g></g></g></g></g><g clip-path="url(#3ec89c090c)"><g clip-path="url(#e965348061)"><path stroke-linecap="butt" transform="matrix(0.725806, 0, 0, 0.725806, 0.651489, 2.69902)" fill="none" stroke-linejoin="miter" d="M 82.614025 16.872669 C 82.614025 26.194197 75.057775 33.750447 65.736248 33.750447 L 16.873574 33.750447 C 7.557428 33.750447 0.00117758 26.194197 0.00117758 16.872669 C 0.00117758 7.556524 7.557428 0.000273519 16.873574 0.000273519 L 65.736248 0.000273519 C 75.057775 0.000273519 82.614025 7.556524 82.614025 16.872669 Z M 82.614025 16.872669 " stroke="#69fccb" stroke-width="2" stroke-opacity="1" stroke-miterlimit="4"/></g></g><g transform="matrix(1, 0, 0, 1, 24, 5)"><g clip-path="url(#f7a21eb125)"><g fill="#000000" fill-opacity="1"><g transform="translate(0.597048, 13.839731)"><g><path d="M 7.28125 -6.328125 C 7.28125 -5.867188 7.171875 -5.4375 6.953125 -5.03125 C 6.734375 -4.625 6.382812 -4.289062 5.90625 -4.03125 C 5.4375 -3.78125 4.828125 -3.65625 4.078125 -3.65625 L 2.453125 -3.65625 L 2.453125 0 L 0.96875 0 L 0.96875 -9.015625 L 4.078125 -9.015625 C 4.773438 -9.015625 5.363281 -8.894531 5.84375 -8.65625 C 6.320312 -8.414062 6.679688 -8.09375 6.921875 -7.6875 C 7.160156 -7.28125 7.28125 -6.828125 7.28125 -6.328125 Z M 4.078125 -4.859375 C 4.640625 -4.859375 5.0625 -4.984375 5.34375 -5.234375 C 5.625 -5.492188 5.765625 -5.859375 5.765625 -6.328125 C 5.765625 -7.316406 5.203125 -7.8125 4.078125 -7.8125 L 2.453125 -7.8125 L 2.453125 -4.859375 Z M 4.078125 -4.859375 "/></g></g></g><g fill="#000000" fill-opacity="1"><g transform="translate(8.314534, 13.839731)"><g><path d="M 2.453125 -9.59375 L 2.453125 0 L 0.96875 0 L 0.96875 -9.59375 Z M 2.453125 -9.59375 "/></g></g></g><g fill="#000000" fill-opacity="1"><g transform="translate(11.738764, 13.839731)"><g><path d="M 7.4375 -7.140625 L 7.4375 0 L 5.96875 0 L 5.96875 -0.84375 C 5.726562 -0.550781 5.421875 -0.316406 5.046875 -0.140625 C 4.671875 0.0234375 4.273438 0.109375 3.859375 0.109375 C 3.296875 0.109375 2.789062 -0.00390625 2.34375 -0.234375 C 1.894531 -0.472656 1.539062 -0.820312 1.28125 -1.28125 C 1.03125 -1.738281 0.90625 -2.289062 0.90625 -2.9375 L 0.90625 -7.140625 L 2.375 -7.140625 L 2.375 -3.171875 C 2.375 -2.523438 2.53125 -2.03125 2.84375 -1.6875 C 3.164062 -1.351562 3.601562 -1.1875 4.15625 -1.1875 C 4.71875 -1.1875 5.160156 -1.351562 5.484375 -1.6875 C 5.804688 -2.03125 5.96875 -2.523438 5.96875 -3.171875 L 5.96875 -7.140625 Z M 7.4375 -7.140625 "/></g></g></g><g fill="#000000" fill-opacity="1"><g transform="translate(20.156666, 13.839731)"><g><path d="M 3.5625 0.109375 C 3 0.109375 2.492188 0.0078125 2.046875 -0.1875 C 1.609375 -0.394531 1.257812 -0.671875 1 -1.015625 C 0.738281 -1.367188 0.597656 -1.757812 0.578125 -2.1875 L 2.109375 -2.1875 C 2.140625 -1.882812 2.285156 -1.628906 2.546875 -1.421875 C 2.804688 -1.222656 3.140625 -1.125 3.546875 -1.125 C 3.953125 -1.125 4.269531 -1.203125 4.5 -1.359375 C 4.726562 -1.523438 4.84375 -1.734375 4.84375 -1.984375 C 4.84375 -2.253906 4.710938 -2.453125 4.453125 -2.578125 C 4.203125 -2.710938 3.800781 -2.859375 3.25 -3.015625 C 2.71875 -3.160156 2.28125 -3.300781 1.9375 -3.4375 C 1.601562 -3.570312 1.3125 -3.78125 1.0625 -4.0625 C 0.820312 -4.351562 0.703125 -4.734375 0.703125 -5.203125 C 0.703125 -5.578125 0.8125 -5.921875 1.03125 -6.234375 C 1.257812 -6.554688 1.582031 -6.804688 2 -6.984375 C 2.414062 -7.171875 2.898438 -7.265625 3.453125 -7.265625 C 4.265625 -7.265625 4.914062 -7.054688 5.40625 -6.640625 C 5.90625 -6.234375 6.175781 -5.675781 6.21875 -4.96875 L 4.734375 -4.96875 C 4.703125 -5.289062 4.570312 -5.546875 4.34375 -5.734375 C 4.113281 -5.921875 3.796875 -6.015625 3.390625 -6.015625 C 3.003906 -6.015625 2.707031 -5.941406 2.5 -5.796875 C 2.289062 -5.648438 2.1875 -5.457031 2.1875 -5.21875 C 2.1875 -5.019531 2.253906 -4.859375 2.390625 -4.734375 C 2.535156 -4.609375 2.707031 -4.503906 2.90625 -4.421875 C 3.101562 -4.347656 3.394531 -4.257812 3.78125 -4.15625 C 4.300781 -4.007812 4.726562 -3.863281 5.0625 -3.71875 C 5.394531 -3.582031 5.679688 -3.375 5.921875 -3.09375 C 6.171875 -2.820312 6.296875 -2.457031 6.296875 -2 C 6.296875 -1.59375 6.179688 -1.226562 5.953125 -0.90625 C 5.734375 -0.582031 5.414062 -0.332031 5 -0.15625 C 4.59375 0.0195312 4.113281 0.109375 3.5625 0.109375 Z M 3.5625 0.109375 "/></g></g></g></g></g><g transform="matrix(1, 0, 0, 1, 8, 9)"><g clip-path="url(#52f81ac843)"><g clip-path="url(#4e94a8f62d)"><g clip-path="url(#bc4ef7df5e)"><g transform="matrix(1, 0, 0, 1, 5, 0.000000000000005329)"><g clip-path="url(#c90ea528d1)"><g clip-path="url(#0a1834264d)"><g clip-path="url(#8896cabd2e)"><path fill="#23211f" d="M 0.566406 0.507812 L 7.835938 0.507812 L 7.835938 10.53125 L 0.566406 10.53125 Z M 0.566406 0.507812 " fill-opacity="1" fill-rule="nonzero"/></g></g></g></g></g></g><g clip-path="url(#3533e21de1)"><g clip-path="url(#aee9e34c5b)"><g transform="matrix(1, 0, 0, 1, 0, 1)"><g clip-path="url(#21dbdaa7c9)"><g clip-path="url(#1b1923ac65)"><g clip-path="url(#f1fb24b907)"><path fill="#23211f" d="M 0.980469 0.746094 L 6.039062 0.746094 L 6.039062 5.804688 L 0.980469 5.804688 Z M 0.980469 0.746094 " fill-opacity="1" fill-rule="nonzero"/></g></g></g></g></g></g></g></g></svg>