<svg xmlns="http://www.w3.org/2000/svg" xmlns:xlink="http://www.w3.org/1999/xlink" width="1200" zoomAndPan="magnify" viewBox="0 0 900 374.999991" height="500" preserveAspectRatio="xMidYMid meet" version="1.0"><defs><clipPath id="fb5e1778c6"><path d="M 761 118.230469 L 840.148438 118.230469 L 840.148438 256.765625 L 761 256.765625 Z M 761 118.230469 " clip-rule="nonzero"/></clipPath><clipPath id="e5b8dcd8af"><path d="M 840.09375 256.523438 L 806.589844 256.523438 L 806.367188 149.75 L 761.265625 149.75 L 761.265625 118.488281 L 840.09375 118.488281 Z M 840.09375 256.523438 " clip-rule="nonzero"/></clipPath><clipPath id="1a3d1223c8"><path d="M 0.0390625 0.320312 L 79.148438 0.320312 L 79.148438 138.558594 L 0.0390625 138.558594 Z M 0.0390625 0.320312 " clip-rule="nonzero"/></clipPath><clipPath id="22652d8a5a"><path d="M 79.09375 138.523438 L 45.589844 138.523438 L 45.367188 31.75 L 0.265625 31.75 L 0.265625 0.488281 L 79.09375 0.488281 Z M 79.09375 138.523438 " clip-rule="nonzero"/></clipPath><clipPath id="62bcfe2cf1"><rect x="0" width="80" y="0" height="139"/></clipPath><clipPath id="2d2894e43b"><path d="M 674.335938 172.769531 L 734.707031 172.769531 L 734.707031 202.914062 L 674.335938 202.914062 Z M 674.335938 172.769531 " clip-rule="nonzero"/></clipPath><clipPath id="4fbd85db63"><path d="M 0.335938 0.769531 L 60.707031 0.769531 L 60.707031 30.914062 L 0.335938 30.914062 Z M 0.335938 0.769531 " clip-rule="nonzero"/></clipPath><clipPath id="cee8d459a8"><rect x="0" width="61" y="0" height="31"/></clipPath><clipPath id="71e5452329"><path d="M 674.335938 118.488281 L 745.636719 118.488281 L 745.636719 149.75 L 674.335938 149.75 Z M 674.335938 118.488281 " clip-rule="nonzero"/></clipPath><clipPath id="43f8f7d5d7"><path d="M 0.335938 0.488281 L 71.636719 0.488281 L 71.636719 31.75 L 0.335938 31.75 Z M 0.335938 0.488281 " clip-rule="nonzero"/></clipPath><clipPath id="1d0f654794"><rect x="0" width="72" y="0" height="32"/></clipPath><clipPath id="48858185c9"><path d="M 674.335938 224.8125 L 747.652344 224.8125 L 747.652344 256.300781 L 674.335938 256.300781 Z M 674.335938 224.8125 " clip-rule="nonzero"/></clipPath><clipPath id="be65ef1bea"><path d="M 0.335938 0.8125 L 73.652344 0.8125 L 73.652344 32.300781 L 0.335938 32.300781 Z M 0.335938 0.8125 " clip-rule="nonzero"/></clipPath><clipPath id="f3b60a5442"><rect x="0" width="74" y="0" height="33"/></clipPath><clipPath id="02b04a6135"><path d="M 176.035156 118.230469 L 299.574219 118.230469 L 299.574219 256.765625 L 176.035156 256.765625 Z M 176.035156 118.230469 " clip-rule="nonzero"/></clipPath><clipPath id="8c37c073ec"><path d="M 211.5 149.75 L 211.5 173.667969 L 241.417969 173.667969 C 254.808594 173.441406 259.0625 166.949219 259.0625 161.171875 C 259.0625 155.796875 256.601562 149.796875 243.433594 149.796875 Z M 221.578125 205.601562 L 211.5 205.601562 L 211.5 256.300781 L 176.878906 256.300781 L 176.65625 118.488281 L 248.359375 118.488281 C 276.933594 118.488281 292.789062 135.910156 292.789062 162.023438 C 292.789062 182.132812 276.933594 196.644531 259.289062 202.464844 L 299.507812 251.597656 L 299.507812 256.300781 L 263.320312 256.300781 Z M 221.578125 205.601562 " clip-rule="nonzero"/></clipPath><clipPath id="f17a09c6b4"><path d="M 0.640625 0.320312 L 123.519531 0.320312 L 123.519531 138.320312 L 0.640625 138.320312 Z M 0.640625 0.320312 " clip-rule="nonzero"/></clipPath><clipPath id="b756334e72"><path d="M 35.5 31.75 L 35.5 55.667969 L 65.417969 55.667969 C 78.808594 55.441406 83.0625 48.949219 83.0625 43.171875 C 83.0625 37.796875 80.601562 31.796875 67.433594 31.796875 Z M 45.578125 87.601562 L 35.5 87.601562 L 35.5 138.300781 L 0.878906 138.300781 L 0.65625 0.488281 L 72.359375 0.488281 C 100.933594 0.488281 116.789062 17.910156 116.789062 44.023438 C 116.789062 64.132812 100.933594 78.644531 83.289062 84.464844 L 123.507812 133.597656 L 123.507812 138.300781 L 87.320312 138.300781 Z M 45.578125 87.601562 " clip-rule="nonzero"/></clipPath><clipPath id="e92fe3759b"><rect x="0" width="124" y="0" height="139"/></clipPath><clipPath id="1e5686088f"><path d="M 398.835938 118.230469 L 512.375 118.230469 L 512.375 256.765625 L 398.835938 256.765625 Z M 398.835938 118.230469 " clip-rule="nonzero"/></clipPath><clipPath id="e81de8a406"><path d="M 433.464844 151.765625 L 433.464844 186.835938 L 460.070312 186.835938 C 473.460938 186.835938 479.507812 178.101562 479.507812 168.964844 C 479.507812 158.707031 474.582031 151.765625 461.636719 151.765625 Z M 433.464844 218.320312 L 433.464844 256.300781 L 398.847656 256.300781 L 398.847656 118.488281 L 464.054688 118.488281 C 492.632812 118.488281 512.292969 136.359375 512.292969 168.738281 C 512.292969 200.449219 489.71875 218.320312 463.382812 218.320312 Z M 433.464844 218.320312 " clip-rule="nonzero"/></clipPath><clipPath id="c507e0efe6"><path d="M 0.835938 0.320312 L 114.375 0.320312 L 114.375 138.320312 L 0.835938 138.320312 Z M 0.835938 0.320312 " clip-rule="nonzero"/></clipPath><clipPath id="7fdfcfabe1"><path d="M 35.464844 33.765625 L 35.464844 68.835938 L 62.070312 68.835938 C 75.460938 68.835938 81.507812 60.101562 81.507812 50.964844 C 81.507812 40.707031 76.582031 33.765625 63.636719 33.765625 Z M 35.464844 100.320312 L 35.464844 138.300781 L 0.847656 138.300781 L 0.847656 0.488281 L 66.054688 0.488281 C 94.632812 0.488281 114.292969 18.359375 114.292969 50.738281 C 114.292969 82.449219 91.71875 100.320312 65.382812 100.320312 Z M 35.464844 100.320312 " clip-rule="nonzero"/></clipPath><clipPath id="639b391ec4"><rect x="0" width="115" y="0" height="139"/></clipPath><clipPath id="70fd286c50"><path d="M 616.15625 118.488281 L 651.222656 118.488281 L 651.222656 172.996094 L 616.15625 172.996094 Z M 529.714844 118.488281 L 564.558594 118.488281 L 564.558594 172.996094 L 529.714844 172.996094 Z M 529.714844 172.996094 L 651.222656 172.996094 L 651.222656 205.601562 L 529.714844 205.601562 Z M 529.714844 205.601562 L 564.558594 205.601562 L 564.558594 256.300781 L 529.714844 256.300781 Z M 616.15625 205.601562 L 651.222656 205.601562 L 651.222656 256.300781 L 616.15625 256.300781 Z M 616.15625 205.601562 " clip-rule="nonzero"/></clipPath><clipPath id="10ab1245ff"><path d="M 87.15625 0.488281 L 122.222656 0.488281 L 122.222656 54.996094 L 87.15625 54.996094 Z M 0.714844 0.488281 L 35.558594 0.488281 L 35.558594 54.996094 L 0.714844 54.996094 Z M 0.714844 54.996094 L 122.222656 54.996094 L 122.222656 87.601562 L 0.714844 87.601562 Z M 0.714844 87.601562 L 35.558594 87.601562 L 35.558594 138.300781 L 0.714844 138.300781 Z M 87.15625 87.601562 L 122.222656 87.601562 L 122.222656 138.300781 L 87.15625 138.300781 Z M 87.15625 87.601562 " clip-rule="nonzero"/></clipPath><clipPath id="468ce2f17c"><rect x="0" width="123" y="0" height="139"/></clipPath><clipPath id="7053b30d97"><path d="M 59.636719 118.230469 L 160 118.230469 L 160 256.765625 L 59.636719 256.765625 Z M 59.636719 118.230469 " clip-rule="nonzero"/></clipPath><clipPath id="2b186c589a"><path d="M 111.667969 118.488281 L 59.894531 118.488281 L 59.894531 151.765625 L 109.25 151.765625 C 122.191406 151.765625 127.121094 158.707031 127.121094 168.964844 C 127.121094 178.101562 121.117188 186.835938 107.683594 186.835938 L 59.894531 186.835938 L 59.894531 256.300781 L 94.515625 256.300781 L 94.515625 218.320312 L 110.996094 218.320312 C 137.332031 218.320312 159.90625 200.449219 159.90625 168.738281 C 159.90625 136.359375 140.242188 118.488281 111.667969 118.488281 " clip-rule="nonzero"/></clipPath><clipPath id="7ffd729cfe"><path d="M 0.761719 0.320312 L 101 0.320312 L 101 138.320312 L 0.761719 138.320312 Z M 0.761719 0.320312 " clip-rule="nonzero"/></clipPath><clipPath id="a8c23fa236"><path d="M 52.667969 0.488281 L 0.894531 0.488281 L 0.894531 33.765625 L 50.25 33.765625 C 63.191406 33.765625 68.121094 40.707031 68.121094 50.964844 C 68.121094 60.101562 62.117188 68.835938 48.683594 68.835938 L 0.894531 68.835938 L 0.894531 138.300781 L 35.515625 138.300781 L 35.515625 100.320312 L 51.996094 100.320312 C 78.332031 100.320312 100.90625 82.449219 100.90625 50.738281 C 100.90625 18.359375 81.242188 0.488281 52.667969 0.488281 " clip-rule="nonzero"/></clipPath><clipPath id="acf0d7cff4"><rect x="0" width="101" y="0" height="139"/></clipPath><clipPath id="8ac9b44a53"><path d="M 306 151.082031 L 376.695312 151.082031 L 376.695312 222 L 306 222 Z M 306 151.082031 " clip-rule="nonzero"/></clipPath><clipPath id="c22f77237a"><path d="M 306.179688 186.835938 C 306.179688 206.183594 321.902344 221.902344 341.25 221.902344 C 360.597656 221.902344 376.316406 206.183594 376.316406 186.835938 C 376.316406 167.484375 360.597656 151.765625 341.25 151.765625 C 321.902344 151.765625 306.179688 167.484375 306.179688 186.835938 " clip-rule="nonzero"/></clipPath><clipPath id="2edad1694c"><path d="M 0 0.679688 L 70.320312 0.679688 L 70.320312 71 L 0 71 Z M 0 0.679688 " clip-rule="nonzero"/></clipPath><clipPath id="0844c918cb"><path d="M 0.179688 35.835938 C 0.179688 55.183594 15.902344 70.902344 35.25 70.902344 C 54.597656 70.902344 70.316406 55.183594 70.316406 35.835938 C 70.316406 16.484375 54.597656 0.765625 35.25 0.765625 C 15.902344 0.765625 0.179688 16.484375 0.179688 35.835938 " clip-rule="nonzero"/></clipPath><clipPath id="5ff9d3fa41"><rect x="0" width="71" y="0" height="71"/></clipPath></defs><g clip-path="url(#fb5e1778c6)"><g clip-path="url(#e5b8dcd8af)"><g transform="matrix(1, 0, 0, 1, 761, 118)"><g clip-path="url(#62bcfe2cf1)"><g clip-path="url(#1a3d1223c8)"><g clip-path="url(#22652d8a5a)"><rect x="-959" width="1296" fill="#231f20" height="539.999987" y="-200.499998" fill-opacity="1"/></g></g></g></g></g></g><g clip-path="url(#2d2894e43b)"><g transform="matrix(1, 0, 0, 1, 674, 172)"><g clip-path="url(#cee8d459a8)"><g clip-path="url(#4fbd85db63)"><rect x="-872" width="1296" fill="#231f20" height="539.999987" y="-254.499998" fill-opacity="1"/></g></g></g></g><g clip-path="url(#71e5452329)"><g transform="matrix(1, 0, 0, 1, 674, 118)"><g clip-path="url(#1d0f654794)"><g clip-path="url(#43f8f7d5d7)"><rect x="-872" width="1296" fill="#231f20" height="539.999987" y="-200.499998" fill-opacity="1"/></g></g></g></g><g clip-path="url(#48858185c9)"><g transform="matrix(1, 0, 0, 1, 674, 224)"><g clip-path="url(#f3b60a5442)"><g clip-path="url(#be65ef1bea)"><rect x="-872" width="1296" fill="#231f20" height="539.999987" y="-306.499998" fill-opacity="1"/></g></g></g></g><g clip-path="url(#02b04a6135)"><g clip-path="url(#8c37c073ec)"><g transform="matrix(1, 0, 0, 1, 176, 118)"><g clip-path="url(#e92fe3759b)"><g clip-path="url(#f17a09c6b4)"><g clip-path="url(#b756334e72)"><rect x="-374" width="1296" fill="#231f20" height="539.999987" y="-200.499998" fill-opacity="1"/></g></g></g></g></g></g><g clip-path="url(#1e5686088f)"><g clip-path="url(#e81de8a406)"><g transform="matrix(1, 0, 0, 1, 398, 118)"><g clip-path="url(#639b391ec4)"><g clip-path="url(#c507e0efe6)"><g clip-path="url(#7fdfcfabe1)"><rect x="-596" width="1296" fill="#231f20" height="539.999987" y="-200.499998" fill-opacity="1"/></g></g></g></g></g></g><g clip-path="url(#70fd286c50)"><g transform="matrix(1, 0, 0, 1, 529, 118)"><g clip-path="url(#468ce2f17c)"><g clip-path="url(#10ab1245ff)"><rect x="-727" width="1296" fill="#231f20" height="539.999987" y="-200.499998" fill-opacity="1"/></g></g></g></g><g clip-path="url(#7053b30d97)"><g clip-path="url(#2b186c589a)"><g transform="matrix(1, 0, 0, 1, 59, 118)"><g clip-path="url(#acf0d7cff4)"><g clip-path="url(#7ffd729cfe)"><g clip-path="url(#a8c23fa236)"><rect x="-257" width="1296" fill="#231f20" height="539.999987" y="-200.499998" fill-opacity="1"/></g></g></g></g></g></g><g clip-path="url(#8ac9b44a53)"><g clip-path="url(#c22f77237a)"><g transform="matrix(1, 0, 0, 1, 306, 151)"><g clip-path="url(#5ff9d3fa41)"><g clip-path="url(#2edad1694c)"><g clip-path="url(#0844c918cb)"><rect x="-504" width="1296" fill="#231f20" height="539.999987" y="-233.499998" fill-opacity="1"/></g></g></g></g></g></g></svg>