<svg xmlns="http://www.w3.org/2000/svg" viewBox="0 0 500 500">
  <!-- Prophet Logo - Apenas a letra P (limpa, sem rebarbas) -->
  <g transform="translate(0,500) scale(0.1,-0.1)" fill="#292929" fill-rule="evenodd">
    <path d="M3695 4321 c518 -117 830 -462 931 -1031 25 -136 25 -462 1 -585 -97
-496 -388 -838 -840 -990 -152 -51 -281 -65 -588 -65 l-279 0 0 -500 0 -500
-430 0 -430 0 0 925 0 924 668 3 c649 3 669 4 729 24 88 30 140 64 201 128 94
100 127 204 120 376 -8 170 -57 267 -174 345 -109 74 -119 75 -879 75 l-665 0
0 450 0 451 768 -4 c754 -3 769 -4 867 -26z"/>
  </g>
</svg>
