<svg xmlns="http://www.w3.org/2000/svg" viewBox="0 0 500 500">
  <!-- Prophet Logo - Vetorizado via potrace, otimizado para Lottie -->
  <g transform="translate(0,500) scale(0.1,-0.1)" fill="#292929" fill-rule="evenodd">
    <!-- Logo P + círculo com buraco transparente (usando evenodd) -->
    <path d="M3695 4321 c518 -117 830 -462 931 -1031 25 -136 25 -462 1 -585 -97
-496 -388 -838 -840 -990 -152 -51 -281 -65 -588 -65 l-279 0 0 -500 0 -500
-455 0 -455 0 -2 884 -3 884 -55 -66 c-135 -162 -342 -278 -555 -313 -95 -15
-307 -6 -390 16 -83 23 -234 96 -309 149 -34 24 -91 75 -126 113 -441 467
-299 1213 283 1489 128 60 212 77 387 78 161 0 209 -7 340 -55 132 -48 294
-165 377 -271 l48 -61 3 427 2 427 793 -4 c780 -3 793 -3 892 -26z
M2073 3383 c73 -145 99 -260 99 -428 -1 -136 -21 -241 -72 -363 l-39
-93 667 3 c649 3 669 4 729 24 88 30 140 64 201 128 94 100 127 204 120 376
-8 170 -57 267 -174 345 -109 74 -118 75 -889 75 l-675 0 33 -67z"/>
  </g>
</svg>
