<svg xmlns="http://www.w3.org/2000/svg" xmlns:xlink="http://www.w3.org/1999/xlink" width="124" zoomAndPan="magnify" viewBox="0 0 93 77.999999" height="104" preserveAspectRatio="xMidYMid meet" version="1.2"><defs><clipPath id="91abf89d11"><path d="M 10.402344 50.765625 L 82.542969 50.765625 L 82.542969 66.300781 L 10.402344 66.300781 Z M 10.402344 50.765625 "/></clipPath><clipPath id="407acbbddf"><path d="M 81.210938 52.25 C 79.519531 50.558594 76.78125 50.558594 75.085938 52.25 C 71.679688 55.660156 67.148438 57.539062 62.324219 57.539062 C 57.5 57.539062 52.96875 55.660156 49.558594 52.25 C 47.867188 50.558594 45.128906 50.558594 43.4375 52.25 C 36.398438 59.289062 24.945312 59.289062 17.910156 52.25 C 16.21875 50.558594 13.480469 50.558594 11.789062 52.25 C 10.097656 53.941406 10.097656 56.683594 11.789062 58.375 C 16.996094 63.582031 23.835938 66.183594 30.675781 66.183594 C 36.242188 66.183594 41.8125 64.457031 46.5 61.007812 C 51.1875 64.457031 56.757812 66.183594 62.324219 66.183594 C 69.164062 66.183594 76.003906 63.582031 81.210938 58.375 C 82.902344 56.683594 82.902344 53.941406 81.210938 52.25 "/></clipPath><clipPath id="817c1e8c3e"><path d="M 13.066406 11.699219 L 79.660156 11.699219 L 79.660156 52.320312 L 13.066406 52.320312 Z M 13.066406 11.699219 "/></clipPath><clipPath id="fd528a9a94"><path d="M 30.570312 52.285156 C 32.976562 52.285156 35.304688 51.800781 37.496094 50.84375 C 39.683594 49.886719 40.6875 47.335938 39.730469 45.144531 C 39.710938 45.101562 39.683594 45.058594 39.664062 45.015625 C 39.539062 44.507812 39.324219 44.015625 39.003906 43.5625 C 34.191406 36.761719 33.675781 33.523438 33.675781 32.449219 C 33.675781 25.621094 39.160156 20.472656 46.4375 20.472656 C 53.714844 20.472656 59.199219 25.621094 59.199219 32.449219 C 59.199219 33.523438 58.683594 36.761719 53.871094 43.5625 C 53.753906 43.730469 53.65625 43.902344 53.5625 44.078125 C 53.449219 44.265625 53.339844 44.460938 53.25 44.667969 C 52.320312 46.871094 53.351562 49.410156 55.550781 50.339844 C 57.6875 51.246094 59.957031 51.703125 62.292969 51.703125 C 71.839844 51.703125 79.605469 43.9375 79.605469 34.390625 C 79.605469 32 77.667969 30.0625 75.277344 30.0625 C 72.886719 30.0625 70.949219 32 70.949219 34.390625 C 70.949219 38.355469 68.269531 41.703125 64.628906 42.722656 C 66.792969 38.757812 67.859375 35.363281 67.859375 32.445312 C 67.859375 20.878906 58.449219 11.816406 46.4375 11.816406 C 34.425781 11.816406 25.015625 20.878906 25.015625 32.449219 C 25.015625 35.53125 26.207031 39.148438 28.628906 43.402344 C 24.785156 42.519531 21.914062 39.074219 21.914062 34.972656 C 21.914062 32.582031 19.976562 30.640625 17.585938 30.640625 C 15.195312 30.640625 13.257812 32.582031 13.257812 34.972656 C 13.257812 44.515625 21.027344 52.285156 30.570312 52.285156 "/></clipPath><clipPath id="c96f174a51"><path d="M 36.597656 30.34375 L 42.589844 30.34375 L 42.589844 36.113281 L 36.597656 36.113281 Z M 36.597656 30.34375 "/></clipPath><clipPath id="a7e15d81ca"><path d="M 36.769531 33.285156 C 36.769531 34.835938 38.027344 36.09375 39.574219 36.09375 C 41.125 36.09375 42.378906 34.835938 42.378906 33.285156 C 42.378906 31.738281 41.125 30.480469 39.574219 30.480469 C 38.027344 30.480469 36.769531 31.738281 36.769531 33.285156 "/></clipPath><clipPath id="4a7b6743ef"><path d="M 43.476562 35.449219 L 49.472656 35.449219 L 49.472656 38.335938 L 43.476562 38.335938 Z M 43.476562 35.449219 "/></clipPath><clipPath id="5abaafa3cc"><path d="M 46.5 38.308594 C 48.050781 38.308594 49.304688 37.050781 49.304688 35.5 L 43.695312 35.5 C 43.695312 37.050781 44.953125 38.308594 46.5 38.308594 "/></clipPath><clipPath id="22def594bb"><path d="M 50.582031 30.34375 L 56.351562 30.34375 L 56.351562 36.113281 L 50.582031 36.113281 Z M 50.582031 30.34375 "/></clipPath><clipPath id="081af463f5"><path d="M 56.230469 33.285156 C 56.230469 31.738281 54.976562 30.480469 53.425781 30.480469 C 51.878906 30.480469 50.621094 31.738281 50.621094 33.285156 C 50.621094 34.835938 51.878906 36.09375 53.425781 36.09375 C 54.976562 36.09375 56.230469 34.835938 56.230469 33.285156 "/></clipPath></defs><g id="eb9122db56"><g clip-rule="nonzero" clip-path="url(#91abf89d11)"><g clip-rule="nonzero" clip-path="url(#407acbbddf)"><path style=" stroke:none;fill-rule:nonzero;fill:#000000;fill-opacity:1;" d="M 9.292969 10.585938 L 83.65625 10.585938 L 83.65625 67.414062 L 9.292969 67.414062 Z M 9.292969 10.585938 "/></g></g><g clip-rule="nonzero" clip-path="url(#817c1e8c3e)"><g clip-rule="nonzero" clip-path="url(#fd528a9a94)"><path style=" stroke:none;fill-rule:nonzero;fill:#000000;fill-opacity:1;" d="M 9.292969 10.585938 L 83.65625 10.585938 L 83.65625 67.414062 L 9.292969 67.414062 Z M 9.292969 10.585938 "/></g></g><g clip-rule="nonzero" clip-path="url(#c96f174a51)"><g clip-rule="nonzero" clip-path="url(#a7e15d81ca)"><path style=" stroke:none;fill-rule:nonzero;fill:#000000;fill-opacity:1;" d="M 9.292969 10.585938 L 83.65625 10.585938 L 83.65625 67.414062 L 9.292969 67.414062 Z M 9.292969 10.585938 "/></g></g><g clip-rule="nonzero" clip-path="url(#4a7b6743ef)"><g clip-rule="nonzero" clip-path="url(#5abaafa3cc)"><path style=" stroke:none;fill-rule:nonzero;fill:#000000;fill-opacity:1;" d="M 9.292969 10.585938 L 83.65625 10.585938 L 83.65625 67.414062 L 9.292969 67.414062 Z M 9.292969 10.585938 "/></g></g><g clip-rule="nonzero" clip-path="url(#22def594bb)"><g clip-rule="nonzero" clip-path="url(#081af463f5)"><path style=" stroke:none;fill-rule:nonzero;fill:#000000;fill-opacity:1;" d="M 9.292969 10.585938 L 83.65625 10.585938 L 83.65625 67.414062 L 9.292969 67.414062 Z M 9.292969 10.585938 "/></g></g></g></svg>