<svg xmlns="http://www.w3.org/2000/svg" xmlns:xlink="http://www.w3.org/1999/xlink" width="500" zoomAndPan="magnify" viewBox="0 0 375 374.999991" height="500" preserveAspectRatio="xMidYMid meet" version="1.0"><defs><clipPath id="f0bff10369"><path d="M 127.257812 0.480469 L 328.859375 0.480469 L 328.859375 278.613281 L 127.257812 278.613281 Z M 127.257812 0.480469 " clip-rule="nonzero"/></clipPath><clipPath id="b001f9a7e4"><path d="M 231.613281 0.625 L 127.257812 0.625 L 127.257812 67.699219 L 226.738281 67.699219 C 252.828125 67.699219 262.757812 81.691406 262.757812 102.363281 C 262.757812 120.78125 250.664062 138.382812 223.582031 138.382812 L 127.257812 138.382812 L 127.257812 278.398438 L 197.039062 278.398438 L 197.039062 201.847656 L 230.261719 201.847656 C 283.34375 201.847656 328.839844 165.828125 328.839844 101.914062 C 328.839844 36.644531 289.210938 0.625 231.613281 0.625 " clip-rule="nonzero"/></clipPath><clipPath id="1d7810453a"><path d="M 0.257812 0.480469 L 201.859375 0.480469 L 201.859375 278.398438 L 0.257812 278.398438 Z M 0.257812 0.480469 " clip-rule="nonzero"/></clipPath><clipPath id="e07c2eb6b8"><path d="M 104.613281 0.625 L 0.257812 0.625 L 0.257812 67.699219 L 99.738281 67.699219 C 125.828125 67.699219 135.757812 81.691406 135.757812 102.363281 C 135.757812 120.78125 123.664062 138.382812 96.582031 138.382812 L 0.257812 138.382812 L 0.257812 278.398438 L 70.039062 278.398438 L 70.039062 201.847656 L 103.261719 201.847656 C 156.34375 201.847656 201.839844 165.828125 201.839844 101.914062 C 201.839844 36.644531 162.210938 0.625 104.613281 0.625 " clip-rule="nonzero"/></clipPath><clipPath id="2bc5bd3cb9"><rect x="0" width="202" y="0" height="279"/></clipPath><clipPath id="7586b3bf5c"><path d="M 0.140625 34.996094 L 140.351562 34.996094 L 140.351562 175.207031 L 0.140625 175.207031 Z M 0.140625 34.996094 " clip-rule="nonzero"/></clipPath><clipPath id="3e2eece5b3"><path d="M 70.246094 34.996094 C 31.527344 34.996094 0.140625 66.382812 0.140625 105.101562 C 0.140625 143.816406 31.527344 175.207031 70.246094 175.207031 C 108.964844 175.207031 140.351562 143.816406 140.351562 105.101562 C 140.351562 66.382812 108.964844 34.996094 70.246094 34.996094 Z M 70.246094 34.996094 " clip-rule="nonzero"/></clipPath><clipPath id="6658e6fc60"><path d="M 0.140625 0.996094 L 140.351562 0.996094 L 140.351562 141.207031 L 0.140625 141.207031 Z M 0.140625 0.996094 " clip-rule="nonzero"/></clipPath><clipPath id="c730e7ab48"><path d="M 70.246094 0.996094 C 31.527344 0.996094 0.140625 32.382812 0.140625 71.101562 C 0.140625 109.816406 31.527344 141.207031 70.246094 141.207031 C 108.964844 141.207031 140.351562 109.816406 140.351562 71.101562 C 140.351562 32.382812 108.964844 0.996094 70.246094 0.996094 Z M 70.246094 0.996094 " clip-rule="nonzero"/></clipPath><clipPath id="3612dad199"><rect x="0" width="141" y="0" height="142"/></clipPath><clipPath id="e05e7797d2"><rect x="0" width="330" y="0" height="279"/></clipPath></defs><g transform="matrix(1, 0, 0, 1, 23, 48)"><g clip-path="url(#e05e7797d2)"><g clip-path="url(#f0bff10369)"><g clip-path="url(#b001f9a7e4)"><g transform="matrix(1, 0, 0, 1, 127, 0)"><g clip-path="url(#2bc5bd3cb9)"><g clip-path="url(#1d7810453a)"><g clip-path="url(#e07c2eb6b8)"><path fill="#23211f" d="M 0.257812 0.625 L 201.859375 0.625 L 201.859375 278.613281 L 0.257812 278.613281 Z M 0.257812 0.625 " fill-opacity="1" fill-rule="nonzero"/></g></g></g></g></g></g><g clip-path="url(#7586b3bf5c)"><g clip-path="url(#3e2eece5b3)"><g transform="matrix(1, 0, 0, 1, 0, 34)"><g clip-path="url(#3612dad199)"><g clip-path="url(#6658e6fc60)"><g clip-path="url(#c730e7ab48)"><path fill="#23211f" d="M 0.140625 0.996094 L 140.351562 0.996094 L 140.351562 141.207031 L 0.140625 141.207031 Z M 0.140625 0.996094 " fill-opacity="1" fill-rule="nonzero"/></g></g></g></g></g></g></g></g></svg>